<svg version="1.1" xmlns="http://www.w3.org/2000/svg" viewBox="0 0 1098.3999938964844 555.2000350952148" width="3295.199981689453" height="1665.6001052856445">
  <!-- svg-source:excalidraw -->
  
  <defs>
    <style>
      @font-face {
        font-family: "Virgil";
        src: url("https://excalidraw.com/Virgil.woff2");
      }
      @font-face {
        font-family: "Cascadia";
        src: url("https://excalidraw.com/Cascadia.woff2");
      }
    </style>
  </defs>
  <g stroke-linecap="round" transform="translate(10 10) rotate(0 539.1999969482422 267.6000175476074)"><path d="M0 0 L1078.4 0 L1078.4 535.2 L0 535.2" stroke="none" stroke-width="0" fill="#ffffff"></path><path d="M0 0 C306.55 0, 613.1 0, 1078.4 0 M0 0 C223.81 0, 447.62 0, 1078.4 0 M1078.4 0 C1078.4 209.39, 1078.4 418.78, 1078.4 535.2 M1078.4 0 C1078.4 205.31, 1078.4 410.61, 1078.4 535.2 M1078.4 535.2 C654.29 535.2, 230.19 535.2, 0 535.2 M1078.4 535.2 C823.19 535.2, 567.97 535.2, 0 535.2 M0 535.2 C0 355.52, 0 175.83, 0 0 M0 535.2 C0 355.28, 0 175.36, 0 0" stroke="#087f5b" stroke-width="2" fill="none"></path></g><g stroke-linecap="round" transform="translate(236.34535240656822 197.2640933890359) rotate(0 164.50000000000003 91.45454268022013)"><path d="M0 0 L329 0 L329 182.91 L0 182.91" stroke="none" stroke-width="0" fill="#ffffff"></path><path d="M0 0 C76.68 0, 153.37 0, 329 0 M0 0 C99 0, 197.99 0, 329 0 M329 0 C329 68.38, 329 136.76, 329 182.91 M329 0 C329 40.02, 329 80.04, 329 182.91 M329 182.91 C211.71 182.91, 94.42 182.91, 0 182.91 M329 182.91 C237.87 182.91, 146.75 182.91, 0 182.91 M0 182.91 C0 129.21, 0 75.51, 0 0 M0 182.91 C0 145.82, 0 108.73, 0 0" stroke="#5c940d" stroke-width="4" fill="none"></path></g><g stroke-linecap="round" transform="translate(1065.5523751988171 111.88165445107973) rotate(0 0.02989011152283183 0.029890111522774987)"><path d="M0 0 C0.03 0, 0.05 -0.01, 0.06 0 M0 0 C0.02 0, 0.04 0, 0.06 0 M0.05 0 C0.06 0.01, 0.06 0.04, 0.06 0.05 M0.06 0 C0.06 0.02, 0.06 0.05, 0.06 0.06 M0.06 0.06 C0.04 0.06, 0.03 0.06, 0 0.06 M0.06 0.06 C0.04 0.06, 0.03 0.06, 0 0.06 M0 0.06 C0 0.04, 0 0.02, 0 -0.01 M0 0.06 C0 0.04, 0 0.02, 0 0" stroke="#000000" stroke-width="1" fill="none"></path></g><g stroke-linecap="round" transform="translate(920.7950499583876 99.17662856528727) rotate(0 35.178289031246436 34.498882051871306)"><path d="M70.36 34.5 C70.36 36.3, 70.21 38.12, 69.92 39.9 C69.64 41.67, 69.2 43.45, 68.63 45.16 C68.07 46.87, 67.36 48.56, 66.52 50.16 C65.69 51.76, 64.72 53.32, 63.64 54.78 C62.56 56.23, 61.35 57.62, 60.05 58.89 C58.76 60.17, 57.34 61.35, 55.86 62.41 C54.37 63.47, 52.78 64.42, 51.15 65.24 C49.51 66.05, 47.79 66.75, 46.05 67.31 C44.3 67.87, 42.49 68.29, 40.68 68.57 C38.87 68.85, 37.01 69, 35.18 69 C33.34 69, 31.49 68.85, 29.68 68.57 C27.86 68.29, 26.05 67.87, 24.31 67.31 C22.56 66.75, 20.84 66.05, 19.21 65.24 C17.57 64.42, 15.99 63.47, 14.5 62.41 C13.02 61.35, 11.6 60.17, 10.3 58.89 C9.01 57.62, 7.8 56.23, 6.72 54.78 C5.64 53.32, 4.67 51.76, 3.83 50.16 C3 48.56, 2.29 46.87, 1.72 45.16 C1.15 43.45, 0.72 41.67, 0.43 39.9 C0.15 38.12, 0 36.3, 0 34.5 C0 32.7, 0.15 30.88, 0.43 29.1 C0.72 27.33, 1.15 25.55, 1.72 23.84 C2.29 22.13, 3 20.44, 3.83 18.84 C4.67 17.23, 5.64 15.68, 6.72 14.22 C7.8 12.77, 9.01 11.38, 10.3 10.1 C11.6 8.83, 13.02 7.65, 14.5 6.59 C15.99 5.53, 17.57 4.58, 19.21 3.76 C20.84 2.94, 22.56 2.24, 24.31 1.69 C26.05 1.13, 27.86 0.71, 29.68 0.42 C31.49 0.14, 33.34 0, 35.18 0 C37.01 0, 38.87 0.14, 40.68 0.42 C42.49 0.71, 44.3 1.13, 46.05 1.69 C47.79 2.24, 49.51 2.94, 51.15 3.76 C52.78 4.58, 54.37 5.53, 55.86 6.59 C57.34 7.65, 58.76 8.83, 60.05 10.1 C61.35 11.38, 62.56 12.77, 63.64 14.22 C64.72 15.68, 65.69 17.23, 66.52 18.84 C67.36 20.44, 68.07 22.13, 68.63 23.84 C69.2 25.55, 69.64 27.33, 69.92 29.1 C70.21 30.88, 70.28 33.6, 70.36 34.5 C70.43 35.4, 70.43 33.6, 70.36 34.5" stroke="none" stroke-width="0" fill="#000000"></path><path d="M70.36 34.5 C70.36 36.3, 70.21 38.12, 69.92 39.9 C69.64 41.67, 69.2 43.45, 68.63 45.16 C68.07 46.87, 67.36 48.56, 66.52 50.16 C65.69 51.76, 64.72 53.32, 63.64 54.78 C62.56 56.23, 61.35 57.62, 60.05 58.89 C58.76 60.17, 57.34 61.35, 55.86 62.41 C54.37 63.47, 52.78 64.42, 51.15 65.24 C49.51 66.05, 47.79 66.75, 46.05 67.31 C44.3 67.87, 42.49 68.29, 40.68 68.57 C38.87 68.85, 37.01 69, 35.18 69 C33.34 69, 31.49 68.85, 29.68 68.57 C27.86 68.29, 26.05 67.87, 24.31 67.31 C22.56 66.75, 20.84 66.05, 19.21 65.24 C17.57 64.42, 15.99 63.47, 14.5 62.41 C13.02 61.35, 11.6 60.17, 10.3 58.89 C9.01 57.62, 7.8 56.23, 6.72 54.78 C5.64 53.32, 4.67 51.76, 3.83 50.16 C3 48.56, 2.29 46.87, 1.72 45.16 C1.15 43.45, 0.72 41.67, 0.43 39.9 C0.15 38.12, 0 36.3, 0 34.5 C0 32.7, 0.15 30.88, 0.43 29.1 C0.72 27.33, 1.15 25.55, 1.72 23.84 C2.29 22.13, 3 20.44, 3.83 18.84 C4.67 17.23, 5.64 15.68, 6.72 14.22 C7.8 12.77, 9.01 11.38, 10.3 10.1 C11.6 8.83, 13.02 7.65, 14.5 6.59 C15.99 5.53, 17.57 4.58, 19.21 3.76 C20.84 2.94, 22.56 2.24, 24.31 1.69 C26.05 1.13, 27.86 0.71, 29.68 0.42 C31.49 0.14, 33.34 0, 35.18 0 C37.01 0, 38.87 0.14, 40.68 0.42 C42.49 0.71, 44.3 1.13, 46.05 1.69 C47.79 2.24, 49.51 2.94, 51.15 3.76 C52.78 4.58, 54.37 5.53, 55.86 6.59 C57.34 7.65, 58.76 8.83, 60.05 10.1 C61.35 11.38, 62.56 12.77, 63.64 14.22 C64.72 15.68, 65.69 17.23, 66.52 18.84 C67.36 20.44, 68.07 22.13, 68.63 23.84 C69.2 25.55, 69.64 27.33, 69.92 29.1 C70.21 30.88, 70.28 33.6, 70.36 34.5 C70.43 35.4, 70.43 33.6, 70.36 34.5" stroke="#000000" stroke-width="1" fill="none"></path></g><g stroke-linecap="round" transform="translate(933.4756838541355 111.7348322559003) rotate(0 23.053247708905587 21.394967239354173)"><path d="M46.11 21.39 C46.11 22.63, 45.99 23.89, 45.76 25.11 C45.52 26.33, 45.17 27.55, 44.72 28.71 C44.26 29.88, 43.69 31.02, 43.02 32.09 C42.35 33.16, 41.57 34.2, 40.71 35.15 C39.86 36.1, 38.89 36.99, 37.87 37.78 C36.85 38.58, 35.74 39.3, 34.58 39.92 C33.42 40.54, 32.19 41.08, 30.94 41.5 C29.68 41.92, 28.37 42.25, 27.06 42.46 C25.74 42.68, 24.39 42.79, 23.05 42.79 C21.72 42.79, 20.36 42.68, 19.05 42.46 C17.74 42.25, 16.42 41.92, 15.17 41.5 C13.91 41.08, 12.68 40.54, 11.53 39.92 C10.37 39.3, 9.26 38.58, 8.23 37.78 C7.21 36.99, 6.25 36.1, 5.39 35.15 C4.54 34.2, 3.76 33.16, 3.09 32.09 C2.42 31.02, 1.85 29.88, 1.39 28.71 C0.93 27.55, 0.58 26.33, 0.35 25.11 C0.12 23.89, 0 22.63, 0 21.39 C0 20.16, 0.12 18.9, 0.35 17.68 C0.58 16.46, 0.93 15.24, 1.39 14.08 C1.85 12.91, 2.42 11.77, 3.09 10.7 C3.76 9.62, 4.54 8.59, 5.39 7.64 C6.25 6.69, 7.21 5.8, 8.23 5.01 C9.26 4.21, 10.37 3.49, 11.53 2.87 C12.68 2.25, 13.91 1.71, 15.17 1.29 C16.42 0.87, 17.74 0.54, 19.05 0.33 C20.36 0.11, 21.72 0, 23.05 0 C24.39 0, 25.74 0.11, 27.06 0.33 C28.37 0.54, 29.68 0.87, 30.94 1.29 C32.19 1.71, 33.42 2.25, 34.58 2.87 C35.74 3.49, 36.85 4.21, 37.87 5.01 C38.89 5.8, 39.86 6.69, 40.71 7.64 C41.57 8.59, 42.35 9.62, 43.02 10.7 C43.69 11.77, 44.26 12.91, 44.72 14.08 C45.17 15.24, 45.52 16.46, 45.76 17.68 C45.99 18.9, 46.05 20.78, 46.11 21.39 C46.16 22.01, 46.16 20.78, 46.11 21.39" stroke="none" stroke-width="0" fill="#ffffff"></path><path d="M46.11 21.39 C46.11 22.63, 45.99 23.89, 45.76 25.11 C45.52 26.33, 45.17 27.55, 44.72 28.71 C44.26 29.88, 43.69 31.02, 43.02 32.09 C42.35 33.16, 41.57 34.2, 40.71 35.15 C39.86 36.1, 38.89 36.99, 37.87 37.78 C36.85 38.58, 35.74 39.3, 34.58 39.92 C33.42 40.54, 32.19 41.08, 30.94 41.5 C29.68 41.92, 28.37 42.25, 27.06 42.46 C25.74 42.68, 24.39 42.79, 23.05 42.79 C21.72 42.79, 20.36 42.68, 19.05 42.46 C17.74 42.25, 16.42 41.92, 15.17 41.5 C13.91 41.08, 12.68 40.54, 11.53 39.92 C10.37 39.3, 9.26 38.58, 8.23 37.78 C7.21 36.99, 6.25 36.1, 5.39 35.15 C4.54 34.2, 3.76 33.16, 3.09 32.09 C2.42 31.02, 1.85 29.88, 1.39 28.71 C0.93 27.55, 0.58 26.33, 0.35 25.11 C0.12 23.89, 0 22.63, 0 21.39 C0 20.16, 0.12 18.9, 0.35 17.68 C0.58 16.46, 0.93 15.24, 1.39 14.08 C1.85 12.91, 2.42 11.77, 3.09 10.7 C3.76 9.62, 4.54 8.59, 5.39 7.64 C6.25 6.69, 7.21 5.8, 8.23 5.01 C9.26 4.21, 10.37 3.49, 11.53 2.87 C12.68 2.25, 13.91 1.71, 15.17 1.29 C16.42 0.87, 17.74 0.54, 19.05 0.33 C20.36 0.11, 21.72 0, 23.05 0 C24.39 0, 25.74 0.11, 27.06 0.33 C28.37 0.54, 29.68 0.87, 30.94 1.29 C32.19 1.71, 33.42 2.25, 34.58 2.87 C35.74 3.49, 36.85 4.21, 37.87 5.01 C38.89 5.8, 39.86 6.69, 40.71 7.64 C41.57 8.59, 42.35 9.62, 43.02 10.7 C43.69 11.77, 44.26 12.91, 44.72 14.08 C45.17 15.24, 45.52 16.46, 45.76 17.68 C45.99 18.9, 46.05 20.78, 46.11 21.39 C46.16 22.01, 46.16 20.78, 46.11 21.39" stroke="#ffffff" stroke-width="1" fill="none"></path></g><g stroke-linecap="round" transform="translate(926.2037368053686 23.36262281447793) rotate(0 27.652148728294605 27.11809595432281)"><path d="M55.3 27.12 C55.3 28.69, 55.16 30.28, 54.88 31.83 C54.61 33.37, 54.18 34.92, 53.64 36.39 C53.09 37.87, 52.4 39.32, 51.6 40.68 C50.8 42.04, 49.86 43.35, 48.83 44.55 C47.81 45.75, 46.65 46.88, 45.43 47.89 C44.2 48.9, 42.86 49.82, 41.48 50.6 C40.09 51.39, 38.61 52.06, 37.11 52.6 C35.61 53.14, 34.03 53.55, 32.45 53.82 C30.88 54.1, 29.25 54.24, 27.65 54.24 C26.05 54.24, 24.43 54.1, 22.85 53.82 C21.27 53.55, 19.7 53.14, 18.19 52.6 C16.69 52.06, 15.21 51.39, 13.83 50.6 C12.44 49.82, 11.1 48.9, 9.88 47.89 C8.65 46.88, 7.5 45.75, 6.47 44.55 C5.44 43.35, 4.5 42.04, 3.7 40.68 C2.9 39.32, 2.22 37.87, 1.67 36.39 C1.12 34.92, 0.7 33.37, 0.42 31.83 C0.14 30.28, 0 28.69, 0 27.12 C0 25.55, 0.14 23.95, 0.42 22.41 C0.7 20.86, 1.12 19.32, 1.67 17.84 C2.22 16.37, 2.9 14.92, 3.7 13.56 C4.5 12.2, 5.44 10.89, 6.47 9.69 C7.5 8.48, 8.65 7.35, 9.88 6.34 C11.1 5.34, 12.44 4.42, 13.83 3.63 C15.21 2.85, 16.69 2.17, 18.19 1.64 C19.7 1.1, 21.27 0.68, 22.85 0.41 C24.43 0.14, 26.05 0, 27.65 0 C29.25 0, 30.88 0.14, 32.45 0.41 C34.03 0.68, 35.61 1.1, 37.11 1.64 C38.61 2.17, 40.09 2.85, 41.48 3.63 C42.86 4.42, 44.2 5.34, 45.43 6.34 C46.65 7.35, 47.81 8.48, 48.83 9.69 C49.86 10.89, 50.8 12.2, 51.6 13.56 C52.4 14.92, 53.09 16.37, 53.64 17.84 C54.18 19.32, 54.61 20.86, 54.88 22.41 C55.16 23.95, 55.23 26.33, 55.3 27.12 C55.37 27.9, 55.37 26.33, 55.3 27.12" stroke="none" stroke-width="0" fill="#000000"></path><path d="M55.3 27.12 C55.3 28.69, 55.16 30.28, 54.88 31.83 C54.61 33.37, 54.18 34.92, 53.64 36.39 C53.09 37.87, 52.4 39.32, 51.6 40.68 C50.8 42.04, 49.86 43.35, 48.83 44.55 C47.81 45.75, 46.65 46.88, 45.43 47.89 C44.2 48.9, 42.86 49.82, 41.48 50.6 C40.09 51.39, 38.61 52.06, 37.11 52.6 C35.61 53.14, 34.03 53.55, 32.45 53.82 C30.88 54.1, 29.25 54.24, 27.65 54.24 C26.05 54.24, 24.43 54.1, 22.85 53.82 C21.27 53.55, 19.7 53.14, 18.19 52.6 C16.69 52.06, 15.21 51.39, 13.83 50.6 C12.44 49.82, 11.1 48.9, 9.88 47.89 C8.65 46.88, 7.5 45.75, 6.47 44.55 C5.44 43.35, 4.5 42.04, 3.7 40.68 C2.9 39.32, 2.22 37.87, 1.67 36.39 C1.12 34.92, 0.7 33.37, 0.42 31.83 C0.14 30.28, 0 28.69, 0 27.12 C0 25.55, 0.14 23.95, 0.42 22.41 C0.7 20.86, 1.12 19.32, 1.67 17.84 C2.22 16.37, 2.9 14.92, 3.7 13.56 C4.5 12.2, 5.44 10.89, 6.47 9.69 C7.5 8.48, 8.65 7.35, 9.88 6.34 C11.1 5.34, 12.44 4.42, 13.83 3.63 C15.21 2.85, 16.69 2.17, 18.19 1.64 C19.7 1.1, 21.27 0.68, 22.85 0.41 C24.43 0.14, 26.05 0, 27.65 0 C29.25 0, 30.88 0.14, 32.45 0.41 C34.03 0.68, 35.61 1.1, 37.11 1.64 C38.61 2.17, 40.09 2.85, 41.48 3.63 C42.86 4.42, 44.2 5.34, 45.43 6.34 C46.65 7.35, 47.81 8.48, 48.83 9.69 C49.86 10.89, 50.8 12.2, 51.6 13.56 C52.4 14.92, 53.09 16.37, 53.64 17.84 C54.18 19.32, 54.61 20.86, 54.88 22.41 C55.16 23.95, 55.23 26.33, 55.3 27.12 C55.37 27.9, 55.37 26.33, 55.3 27.12" stroke="#000000" stroke-width="1" fill="none"></path></g><g stroke-linecap="round" transform="translate(936.605779280708 34.53289983384755) rotate(0 16.7406499031282 16.20002069048651)"><path d="M33.48 16.2 C33.48 17.14, 33.4 18.09, 33.23 19.01 C33.06 19.94, 32.8 20.86, 32.47 21.74 C32.14 22.62, 31.72 23.49, 31.24 24.3 C30.75 25.11, 30.19 25.89, 29.56 26.61 C28.94 27.33, 28.24 28.01, 27.5 28.61 C26.76 29.21, 25.95 29.76, 25.11 30.23 C24.27 30.7, 23.38 31.1, 22.47 31.42 C21.56 31.74, 20.6 31.99, 19.65 32.15 C18.69 32.32, 17.71 32.4, 16.74 32.4 C15.77 32.4, 14.79 32.32, 13.83 32.15 C12.88 31.99, 11.93 31.74, 11.02 31.42 C10.1 31.1, 9.21 30.7, 8.37 30.23 C7.53 29.76, 6.72 29.21, 5.98 28.61 C5.24 28.01, 4.54 27.33, 3.92 26.61 C3.29 25.89, 2.73 25.11, 2.24 24.3 C1.76 23.49, 1.34 22.62, 1.01 21.74 C0.68 20.86, 0.42 19.94, 0.25 19.01 C0.09 18.09, 0 17.14, 0 16.2 C0 15.26, 0.09 14.31, 0.25 13.39 C0.42 12.46, 0.68 11.54, 1.01 10.66 C1.34 9.78, 1.76 8.91, 2.24 8.1 C2.73 7.29, 3.29 6.51, 3.92 5.79 C4.54 5.07, 5.24 4.39, 5.98 3.79 C6.72 3.19, 7.53 2.64, 8.37 2.17 C9.21 1.7, 10.1 1.3, 11.02 0.98 C11.93 0.66, 12.88 0.41, 13.83 0.25 C14.79 0.08, 15.77 0, 16.74 0 C17.71 0, 18.69 0.08, 19.65 0.25 C20.6 0.41, 21.56 0.66, 22.47 0.98 C23.38 1.3, 24.27 1.7, 25.11 2.17 C25.95 2.64, 26.76 3.19, 27.5 3.79 C28.24 4.39, 28.94 5.07, 29.56 5.79 C30.19 6.51, 30.75 7.29, 31.24 8.1 C31.72 8.91, 32.14 9.78, 32.47 10.66 C32.8 11.54, 33.06 12.46, 33.23 13.39 C33.4 14.31, 33.44 15.73, 33.48 16.2 C33.52 16.67, 33.52 15.73, 33.48 16.2" stroke="none" stroke-width="0" fill="#ffffff"></path><path d="M33.48 16.2 C33.48 17.14, 33.4 18.09, 33.23 19.01 C33.06 19.94, 32.8 20.86, 32.47 21.74 C32.14 22.62, 31.72 23.49, 31.24 24.3 C30.75 25.11, 30.19 25.89, 29.56 26.61 C28.94 27.33, 28.24 28.01, 27.5 28.61 C26.76 29.21, 25.95 29.76, 25.11 30.23 C24.27 30.7, 23.38 31.1, 22.47 31.42 C21.56 31.74, 20.6 31.99, 19.65 32.15 C18.69 32.32, 17.71 32.4, 16.74 32.4 C15.77 32.4, 14.79 32.32, 13.83 32.15 C12.88 31.99, 11.93 31.74, 11.02 31.42 C10.1 31.1, 9.21 30.7, 8.37 30.23 C7.53 29.76, 6.72 29.21, 5.98 28.61 C5.24 28.01, 4.54 27.33, 3.92 26.61 C3.29 25.89, 2.73 25.11, 2.24 24.3 C1.76 23.49, 1.34 22.62, 1.01 21.74 C0.68 20.86, 0.42 19.94, 0.25 19.01 C0.09 18.09, 0 17.14, 0 16.2 C0 15.26, 0.09 14.31, 0.25 13.39 C0.42 12.46, 0.68 11.54, 1.01 10.66 C1.34 9.78, 1.76 8.91, 2.24 8.1 C2.73 7.29, 3.29 6.51, 3.92 5.79 C4.54 5.07, 5.24 4.39, 5.98 3.79 C6.72 3.19, 7.53 2.64, 8.37 2.17 C9.21 1.7, 10.1 1.3, 11.02 0.98 C11.93 0.66, 12.88 0.41, 13.83 0.25 C14.79 0.08, 15.77 0, 16.74 0 C17.71 0, 18.69 0.08, 19.65 0.25 C20.6 0.41, 21.56 0.66, 22.47 0.98 C23.38 1.3, 24.27 1.7, 25.11 2.17 C25.95 2.64, 26.76 3.19, 27.5 3.79 C28.24 4.39, 28.94 5.07, 29.56 5.79 C30.19 6.51, 30.75 7.29, 31.24 8.1 C31.72 8.91, 32.14 9.78, 32.47 10.66 C32.8 11.54, 33.06 12.46, 33.23 13.39 C33.4 14.31, 33.44 15.73, 33.48 16.2 C33.52 16.67, 33.52 15.73, 33.48 16.2" stroke="#ffffff" stroke-width="1" fill="none"></path></g><g stroke-linecap="round" transform="translate(929.8180150153414 187.78355550289962) rotate(0 27.652148728294605 27.118095954322797)"><path d="M55.3 27.12 C55.3 28.69, 55.16 30.28, 54.88 31.83 C54.61 33.37, 54.18 34.92, 53.64 36.39 C53.09 37.87, 52.4 39.32, 51.6 40.68 C50.8 42.04, 49.86 43.35, 48.83 44.55 C47.81 45.75, 46.65 46.88, 45.43 47.89 C44.2 48.9, 42.86 49.82, 41.48 50.6 C40.09 51.39, 38.61 52.06, 37.11 52.6 C35.61 53.14, 34.03 53.55, 32.45 53.82 C30.88 54.1, 29.25 54.24, 27.65 54.24 C26.05 54.24, 24.43 54.1, 22.85 53.82 C21.27 53.55, 19.7 53.14, 18.19 52.6 C16.69 52.06, 15.21 51.39, 13.83 50.6 C12.44 49.82, 11.1 48.9, 9.88 47.89 C8.65 46.88, 7.5 45.75, 6.47 44.55 C5.44 43.35, 4.5 42.04, 3.7 40.68 C2.9 39.32, 2.22 37.87, 1.67 36.39 C1.12 34.92, 0.7 33.37, 0.42 31.83 C0.14 30.28, 0 28.69, 0 27.12 C0 25.55, 0.14 23.95, 0.42 22.41 C0.7 20.86, 1.12 19.32, 1.67 17.84 C2.22 16.37, 2.9 14.92, 3.7 13.56 C4.5 12.2, 5.44 10.89, 6.47 9.69 C7.5 8.48, 8.65 7.35, 9.88 6.34 C11.1 5.34, 12.44 4.42, 13.83 3.63 C15.21 2.85, 16.69 2.17, 18.19 1.64 C19.7 1.1, 21.27 0.68, 22.85 0.41 C24.43 0.14, 26.05 0, 27.65 0 C29.25 0, 30.88 0.14, 32.45 0.41 C34.03 0.68, 35.61 1.1, 37.11 1.64 C38.61 2.17, 40.09 2.85, 41.48 3.63 C42.86 4.42, 44.2 5.34, 45.43 6.34 C46.65 7.35, 47.81 8.48, 48.83 9.69 C49.86 10.89, 50.8 12.2, 51.6 13.56 C52.4 14.92, 53.09 16.37, 53.64 17.84 C54.18 19.32, 54.61 20.86, 54.88 22.41 C55.16 23.95, 55.23 26.33, 55.3 27.12 C55.37 27.9, 55.37 26.33, 55.3 27.12" stroke="none" stroke-width="0" fill="#000000"></path><path d="M55.3 27.12 C55.3 28.69, 55.16 30.28, 54.88 31.83 C54.61 33.37, 54.18 34.92, 53.64 36.39 C53.09 37.87, 52.4 39.32, 51.6 40.68 C50.8 42.04, 49.86 43.35, 48.83 44.55 C47.81 45.75, 46.65 46.88, 45.43 47.89 C44.2 48.9, 42.86 49.82, 41.48 50.6 C40.09 51.39, 38.61 52.06, 37.11 52.6 C35.61 53.14, 34.03 53.55, 32.45 53.82 C30.88 54.1, 29.25 54.24, 27.65 54.24 C26.05 54.24, 24.43 54.1, 22.85 53.82 C21.27 53.55, 19.7 53.14, 18.19 52.6 C16.69 52.06, 15.21 51.39, 13.83 50.6 C12.44 49.82, 11.1 48.9, 9.88 47.89 C8.65 46.88, 7.5 45.75, 6.47 44.55 C5.44 43.35, 4.5 42.04, 3.7 40.68 C2.9 39.32, 2.22 37.87, 1.67 36.39 C1.12 34.92, 0.7 33.37, 0.42 31.83 C0.14 30.28, 0 28.69, 0 27.12 C0 25.55, 0.14 23.95, 0.42 22.41 C0.7 20.86, 1.12 19.32, 1.67 17.84 C2.22 16.37, 2.9 14.92, 3.7 13.56 C4.5 12.2, 5.44 10.89, 6.47 9.69 C7.5 8.48, 8.65 7.35, 9.88 6.34 C11.1 5.34, 12.44 4.42, 13.83 3.63 C15.21 2.85, 16.69 2.17, 18.19 1.64 C19.7 1.1, 21.27 0.68, 22.85 0.41 C24.43 0.14, 26.05 0, 27.65 0 C29.25 0, 30.88 0.14, 32.45 0.41 C34.03 0.68, 35.61 1.1, 37.11 1.64 C38.61 2.17, 40.09 2.85, 41.48 3.63 C42.86 4.42, 44.2 5.34, 45.43 6.34 C46.65 7.35, 47.81 8.48, 48.83 9.69 C49.86 10.89, 50.8 12.2, 51.6 13.56 C52.4 14.92, 53.09 16.37, 53.64 17.84 C54.18 19.32, 54.61 20.86, 54.88 22.41 C55.16 23.95, 55.23 26.33, 55.3 27.12 C55.37 27.9, 55.37 26.33, 55.3 27.12" stroke="#000000" stroke-width="1" fill="none"></path></g><g stroke-linecap="round" transform="translate(939.7433711057279 199.0927115326217) rotate(0 17.230656977389344 16.235395532745997)"><path d="M34.46 16.24 C34.46 17.18, 34.37 18.13, 34.2 19.05 C34.03 19.98, 33.76 20.91, 33.42 21.79 C33.08 22.67, 32.65 23.54, 32.15 24.35 C31.65 25.17, 31.07 25.95, 30.43 26.67 C29.79 27.39, 29.07 28.07, 28.31 28.67 C27.54 29.28, 26.71 29.83, 25.85 30.3 C24.98 30.77, 24.06 31.17, 23.12 31.49 C22.19 31.81, 21.2 32.06, 20.22 32.22 C19.24 32.39, 18.23 32.47, 17.23 32.47 C16.23 32.47, 15.22 32.39, 14.24 32.22 C13.26 32.06, 12.27 31.81, 11.34 31.49 C10.4 31.17, 9.48 30.77, 8.62 30.3 C7.75 29.83, 6.92 29.28, 6.16 28.67 C5.39 28.07, 4.67 27.39, 4.03 26.67 C3.39 25.95, 2.81 25.17, 2.31 24.35 C1.81 23.54, 1.38 22.67, 1.04 21.79 C0.7 20.91, 0.43 19.98, 0.26 19.05 C0.09 18.13, 0 17.18, 0 16.24 C0 15.3, 0.09 14.34, 0.26 13.42 C0.43 12.49, 0.7 11.57, 1.04 10.68 C1.38 9.8, 1.81 8.93, 2.31 8.12 C2.81 7.3, 3.39 6.52, 4.03 5.8 C4.67 5.08, 5.39 4.4, 6.16 3.8 C6.92 3.19, 7.75 2.65, 8.62 2.18 C9.48 1.71, 10.4 1.3, 11.34 0.98 C12.27 0.66, 13.26 0.41, 14.24 0.25 C15.22 0.08, 16.23 0, 17.23 0 C18.23 0, 19.24 0.08, 20.22 0.25 C21.2 0.41, 22.19 0.66, 23.12 0.98 C24.06 1.3, 24.98 1.71, 25.85 2.18 C26.71 2.65, 27.54 3.19, 28.31 3.8 C29.07 4.4, 29.79 5.08, 30.43 5.8 C31.07 6.52, 31.65 7.3, 32.15 8.12 C32.65 8.93, 33.08 9.8, 33.42 10.68 C33.76 11.57, 34.03 12.49, 34.2 13.42 C34.37 14.34, 34.42 15.77, 34.46 16.24 C34.5 16.71, 34.5 15.77, 34.46 16.24" stroke="none" stroke-width="0" fill="#ffffff"></path><path d="M34.46 16.24 C34.46 17.18, 34.37 18.13, 34.2 19.05 C34.03 19.98, 33.76 20.91, 33.42 21.79 C33.08 22.67, 32.65 23.54, 32.15 24.35 C31.65 25.17, 31.07 25.95, 30.43 26.67 C29.79 27.39, 29.07 28.07, 28.31 28.67 C27.54 29.28, 26.71 29.83, 25.85 30.3 C24.98 30.77, 24.06 31.17, 23.12 31.49 C22.19 31.81, 21.2 32.06, 20.22 32.22 C19.24 32.39, 18.23 32.47, 17.23 32.47 C16.23 32.47, 15.22 32.39, 14.24 32.22 C13.26 32.06, 12.27 31.81, 11.34 31.49 C10.4 31.17, 9.48 30.77, 8.62 30.3 C7.75 29.83, 6.92 29.28, 6.16 28.67 C5.39 28.07, 4.67 27.39, 4.03 26.67 C3.39 25.95, 2.81 25.17, 2.31 24.35 C1.81 23.54, 1.38 22.67, 1.04 21.79 C0.7 20.91, 0.43 19.98, 0.26 19.05 C0.09 18.13, 0 17.18, 0 16.24 C0 15.3, 0.09 14.34, 0.26 13.42 C0.43 12.49, 0.7 11.57, 1.04 10.68 C1.38 9.8, 1.81 8.93, 2.31 8.12 C2.81 7.3, 3.39 6.52, 4.03 5.8 C4.67 5.08, 5.39 4.4, 6.16 3.8 C6.92 3.19, 7.75 2.65, 8.62 2.18 C9.48 1.71, 10.4 1.3, 11.34 0.98 C12.27 0.66, 13.26 0.41, 14.24 0.25 C15.22 0.08, 16.23 0, 17.23 0 C18.23 0, 19.24 0.08, 20.22 0.25 C21.2 0.41, 22.19 0.66, 23.12 0.98 C24.06 1.3, 24.98 1.71, 25.85 2.18 C26.71 2.65, 27.54 3.19, 28.31 3.8 C29.07 4.4, 29.79 5.08, 30.43 5.8 C31.07 6.52, 31.65 7.3, 32.15 8.12 C32.65 8.93, 33.08 9.8, 33.42 10.68 C33.76 11.57, 34.03 12.49, 34.2 13.42 C34.37 14.34, 34.42 15.77, 34.46 16.24 C34.5 16.71, 34.5 15.77, 34.46 16.24" stroke="#ffffff" stroke-width="1" fill="none"></path></g><g stroke-linecap="round" transform="translate(995.8595473906162 59.206089806130194) rotate(0 27.652148728294605 27.118095954322797)"><path d="M55.3 27.12 C55.3 28.69, 55.16 30.28, 54.88 31.83 C54.61 33.37, 54.18 34.92, 53.64 36.39 C53.09 37.87, 52.4 39.32, 51.6 40.68 C50.8 42.04, 49.86 43.35, 48.83 44.55 C47.81 45.75, 46.65 46.88, 45.43 47.89 C44.2 48.9, 42.86 49.82, 41.48 50.6 C40.09 51.39, 38.61 52.06, 37.11 52.6 C35.61 53.14, 34.03 53.55, 32.45 53.82 C30.88 54.1, 29.25 54.24, 27.65 54.24 C26.05 54.24, 24.43 54.1, 22.85 53.82 C21.27 53.55, 19.7 53.14, 18.19 52.6 C16.69 52.06, 15.21 51.39, 13.83 50.6 C12.44 49.82, 11.1 48.9, 9.88 47.89 C8.65 46.88, 7.5 45.75, 6.47 44.55 C5.44 43.35, 4.5 42.04, 3.7 40.68 C2.9 39.32, 2.22 37.87, 1.67 36.39 C1.12 34.92, 0.7 33.37, 0.42 31.83 C0.14 30.28, 0 28.69, 0 27.12 C0 25.55, 0.14 23.95, 0.42 22.41 C0.7 20.86, 1.12 19.32, 1.67 17.84 C2.22 16.37, 2.9 14.92, 3.7 13.56 C4.5 12.2, 5.44 10.89, 6.47 9.69 C7.5 8.48, 8.65 7.35, 9.88 6.34 C11.1 5.34, 12.44 4.42, 13.83 3.63 C15.21 2.85, 16.69 2.17, 18.19 1.64 C19.7 1.1, 21.27 0.68, 22.85 0.41 C24.43 0.14, 26.05 0, 27.65 0 C29.25 0, 30.88 0.14, 32.45 0.41 C34.03 0.68, 35.61 1.1, 37.11 1.64 C38.61 2.17, 40.09 2.85, 41.48 3.63 C42.86 4.42, 44.2 5.34, 45.43 6.34 C46.65 7.35, 47.81 8.48, 48.83 9.69 C49.86 10.89, 50.8 12.2, 51.6 13.56 C52.4 14.92, 53.09 16.37, 53.64 17.84 C54.18 19.32, 54.61 20.86, 54.88 22.41 C55.16 23.95, 55.23 26.33, 55.3 27.12 C55.37 27.9, 55.37 26.33, 55.3 27.12" stroke="none" stroke-width="0" fill="#000000"></path><path d="M55.3 27.12 C55.3 28.69, 55.16 30.28, 54.88 31.83 C54.61 33.37, 54.18 34.92, 53.64 36.39 C53.09 37.87, 52.4 39.32, 51.6 40.68 C50.8 42.04, 49.86 43.35, 48.83 44.55 C47.81 45.75, 46.65 46.88, 45.43 47.89 C44.2 48.9, 42.86 49.82, 41.48 50.6 C40.09 51.39, 38.61 52.06, 37.11 52.6 C35.61 53.14, 34.03 53.55, 32.45 53.82 C30.88 54.1, 29.25 54.24, 27.65 54.24 C26.05 54.24, 24.43 54.1, 22.85 53.82 C21.27 53.55, 19.7 53.14, 18.19 52.6 C16.69 52.06, 15.21 51.39, 13.83 50.6 C12.44 49.82, 11.1 48.9, 9.88 47.89 C8.65 46.88, 7.5 45.75, 6.47 44.55 C5.44 43.35, 4.5 42.04, 3.7 40.68 C2.9 39.32, 2.22 37.87, 1.67 36.39 C1.12 34.92, 0.7 33.37, 0.42 31.83 C0.14 30.28, 0 28.69, 0 27.12 C0 25.55, 0.14 23.95, 0.42 22.41 C0.7 20.86, 1.12 19.32, 1.67 17.84 C2.22 16.37, 2.9 14.92, 3.7 13.56 C4.5 12.2, 5.44 10.89, 6.47 9.69 C7.5 8.48, 8.65 7.35, 9.88 6.34 C11.1 5.34, 12.44 4.42, 13.83 3.63 C15.21 2.85, 16.69 2.17, 18.19 1.64 C19.7 1.1, 21.27 0.68, 22.85 0.41 C24.43 0.14, 26.05 0, 27.65 0 C29.25 0, 30.88 0.14, 32.45 0.41 C34.03 0.68, 35.61 1.1, 37.11 1.64 C38.61 2.17, 40.09 2.85, 41.48 3.63 C42.86 4.42, 44.2 5.34, 45.43 6.34 C46.65 7.35, 47.81 8.48, 48.83 9.69 C49.86 10.89, 50.8 12.2, 51.6 13.56 C52.4 14.92, 53.09 16.37, 53.64 17.84 C54.18 19.32, 54.61 20.86, 54.88 22.41 C55.16 23.95, 55.23 26.33, 55.3 27.12 C55.37 27.9, 55.37 26.33, 55.3 27.12" stroke="#000000" stroke-width="1" fill="none"></path></g><g stroke-linecap="round" transform="translate(1006.4188113871187 69.73961966482807) rotate(0 17.230656977389458 17.076530670916185)"><path d="M34.46 17.08 C34.46 18.06, 34.37 19.07, 34.2 20.04 C34.03 21.02, 33.76 21.99, 33.42 22.92 C33.08 23.85, 32.65 24.76, 32.15 25.61 C31.65 26.47, 31.07 27.3, 30.43 28.05 C29.79 28.81, 29.07 29.52, 28.31 30.16 C27.54 30.79, 26.71 31.37, 25.85 31.87 C24.98 32.36, 24.06 32.79, 23.12 33.12 C22.19 33.46, 21.2 33.72, 20.22 33.89 C19.24 34.07, 18.23 34.15, 17.23 34.15 C16.23 34.15, 15.22 34.07, 14.24 33.89 C13.26 33.72, 12.27 33.46, 11.34 33.12 C10.4 32.79, 9.48 32.36, 8.62 31.87 C7.75 31.37, 6.92 30.79, 6.16 30.16 C5.39 29.52, 4.67 28.81, 4.03 28.05 C3.39 27.3, 2.81 26.47, 2.31 25.61 C1.81 24.76, 1.38 23.85, 1.04 22.92 C0.7 21.99, 0.43 21.02, 0.26 20.04 C0.09 19.07, 0 18.06, 0 17.08 C0 16.09, 0.09 15.08, 0.26 14.11 C0.43 13.14, 0.7 12.16, 1.04 11.24 C1.38 10.31, 1.81 9.39, 2.31 8.54 C2.81 7.68, 3.39 6.86, 4.03 6.1 C4.67 5.34, 5.39 4.63, 6.16 4 C6.92 3.36, 7.75 2.78, 8.62 2.29 C9.48 1.79, 10.4 1.37, 11.34 1.03 C12.27 0.69, 13.26 0.43, 14.24 0.26 C15.22 0.09, 16.23 0, 17.23 0 C18.23 0, 19.24 0.09, 20.22 0.26 C21.2 0.43, 22.19 0.69, 23.12 1.03 C24.06 1.37, 24.98 1.79, 25.85 2.29 C26.71 2.78, 27.54 3.36, 28.31 4 C29.07 4.63, 29.79 5.34, 30.43 6.1 C31.07 6.86, 31.65 7.68, 32.15 8.54 C32.65 9.39, 33.08 10.31, 33.42 11.24 C33.76 12.16, 34.03 13.14, 34.2 14.11 C34.37 15.08, 34.42 16.58, 34.46 17.08 C34.5 17.57, 34.5 16.58, 34.46 17.08" stroke="none" stroke-width="0" fill="#ffffff"></path><path d="M34.46 17.08 C34.46 18.06, 34.37 19.07, 34.2 20.04 C34.03 21.02, 33.76 21.99, 33.42 22.92 C33.08 23.85, 32.65 24.76, 32.15 25.61 C31.65 26.47, 31.07 27.3, 30.43 28.05 C29.79 28.81, 29.07 29.52, 28.31 30.16 C27.54 30.79, 26.71 31.37, 25.85 31.87 C24.98 32.36, 24.06 32.79, 23.12 33.12 C22.19 33.46, 21.2 33.72, 20.22 33.89 C19.24 34.07, 18.23 34.15, 17.23 34.15 C16.23 34.15, 15.22 34.07, 14.24 33.89 C13.26 33.72, 12.27 33.46, 11.34 33.12 C10.4 32.79, 9.48 32.36, 8.62 31.87 C7.75 31.37, 6.92 30.79, 6.16 30.16 C5.39 29.52, 4.67 28.81, 4.03 28.05 C3.39 27.3, 2.81 26.47, 2.31 25.61 C1.81 24.76, 1.38 23.85, 1.04 22.92 C0.7 21.99, 0.43 21.02, 0.26 20.04 C0.09 19.07, 0 18.06, 0 17.08 C0 16.09, 0.09 15.08, 0.26 14.11 C0.43 13.14, 0.7 12.16, 1.04 11.24 C1.38 10.31, 1.81 9.39, 2.31 8.54 C2.81 7.68, 3.39 6.86, 4.03 6.1 C4.67 5.34, 5.39 4.63, 6.16 4 C6.92 3.36, 7.75 2.78, 8.62 2.29 C9.48 1.79, 10.4 1.37, 11.34 1.03 C12.27 0.69, 13.26 0.43, 14.24 0.26 C15.22 0.09, 16.23 0, 17.23 0 C18.23 0, 19.24 0.09, 20.22 0.26 C21.2 0.43, 22.19 0.69, 23.12 1.03 C24.06 1.37, 24.98 1.79, 25.85 2.29 C26.71 2.78, 27.54 3.36, 28.31 4 C29.07 4.63, 29.79 5.34, 30.43 6.1 C31.07 6.86, 31.65 7.68, 32.15 8.54 C32.65 9.39, 33.08 10.31, 33.42 11.24 C33.76 12.16, 34.03 13.14, 34.2 14.11 C34.37 15.08, 34.42 16.58, 34.46 17.08 C34.5 17.57, 34.5 16.58, 34.46 17.08" stroke="#ffffff" stroke-width="1" fill="none"></path></g><g stroke-linecap="round" transform="translate(1000.8956770665591 143.45604566839347) rotate(0 27.652148728294605 27.118095954322797)"><path d="M55.3 27.12 C55.3 28.69, 55.16 30.28, 54.88 31.83 C54.61 33.37, 54.18 34.92, 53.64 36.39 C53.09 37.87, 52.4 39.32, 51.6 40.68 C50.8 42.04, 49.86 43.35, 48.83 44.55 C47.81 45.75, 46.65 46.88, 45.43 47.89 C44.2 48.9, 42.86 49.82, 41.48 50.6 C40.09 51.39, 38.61 52.06, 37.11 52.6 C35.61 53.14, 34.03 53.55, 32.45 53.82 C30.88 54.1, 29.25 54.24, 27.65 54.24 C26.05 54.24, 24.43 54.1, 22.85 53.82 C21.27 53.55, 19.7 53.14, 18.19 52.6 C16.69 52.06, 15.21 51.39, 13.83 50.6 C12.44 49.82, 11.1 48.9, 9.88 47.89 C8.65 46.88, 7.5 45.75, 6.47 44.55 C5.44 43.35, 4.5 42.04, 3.7 40.68 C2.9 39.32, 2.22 37.87, 1.67 36.39 C1.12 34.92, 0.7 33.37, 0.42 31.83 C0.14 30.28, 0 28.69, 0 27.12 C0 25.55, 0.14 23.95, 0.42 22.41 C0.7 20.86, 1.12 19.32, 1.67 17.84 C2.22 16.37, 2.9 14.92, 3.7 13.56 C4.5 12.2, 5.44 10.89, 6.47 9.69 C7.5 8.48, 8.65 7.35, 9.88 6.34 C11.1 5.34, 12.44 4.42, 13.83 3.63 C15.21 2.85, 16.69 2.17, 18.19 1.64 C19.7 1.1, 21.27 0.68, 22.85 0.41 C24.43 0.14, 26.05 0, 27.65 0 C29.25 0, 30.88 0.14, 32.45 0.41 C34.03 0.68, 35.61 1.1, 37.11 1.64 C38.61 2.17, 40.09 2.85, 41.48 3.63 C42.86 4.42, 44.2 5.34, 45.43 6.34 C46.65 7.35, 47.81 8.48, 48.83 9.69 C49.86 10.89, 50.8 12.2, 51.6 13.56 C52.4 14.92, 53.09 16.37, 53.64 17.84 C54.18 19.32, 54.61 20.86, 54.88 22.41 C55.16 23.95, 55.23 26.33, 55.3 27.12 C55.37 27.9, 55.37 26.33, 55.3 27.12" stroke="none" stroke-width="0" fill="#000000"></path><path d="M55.3 27.12 C55.3 28.69, 55.16 30.28, 54.88 31.83 C54.61 33.37, 54.18 34.92, 53.64 36.39 C53.09 37.87, 52.4 39.32, 51.6 40.68 C50.8 42.04, 49.86 43.35, 48.83 44.55 C47.81 45.75, 46.65 46.88, 45.43 47.89 C44.2 48.9, 42.86 49.82, 41.48 50.6 C40.09 51.39, 38.61 52.06, 37.11 52.6 C35.61 53.14, 34.03 53.55, 32.45 53.82 C30.88 54.1, 29.25 54.24, 27.65 54.24 C26.05 54.24, 24.43 54.1, 22.85 53.82 C21.27 53.55, 19.7 53.14, 18.19 52.6 C16.69 52.06, 15.21 51.39, 13.83 50.6 C12.44 49.82, 11.1 48.9, 9.88 47.89 C8.65 46.88, 7.5 45.75, 6.47 44.55 C5.44 43.35, 4.5 42.04, 3.7 40.68 C2.9 39.32, 2.22 37.87, 1.67 36.39 C1.12 34.92, 0.7 33.37, 0.42 31.83 C0.14 30.28, 0 28.69, 0 27.12 C0 25.55, 0.14 23.95, 0.42 22.41 C0.7 20.86, 1.12 19.32, 1.67 17.84 C2.22 16.37, 2.9 14.92, 3.7 13.56 C4.5 12.2, 5.44 10.89, 6.47 9.69 C7.5 8.48, 8.65 7.35, 9.88 6.34 C11.1 5.34, 12.44 4.42, 13.83 3.63 C15.21 2.85, 16.69 2.17, 18.19 1.64 C19.7 1.1, 21.27 0.68, 22.85 0.41 C24.43 0.14, 26.05 0, 27.65 0 C29.25 0, 30.88 0.14, 32.45 0.41 C34.03 0.68, 35.61 1.1, 37.11 1.64 C38.61 2.17, 40.09 2.85, 41.48 3.63 C42.86 4.42, 44.2 5.34, 45.43 6.34 C46.65 7.35, 47.81 8.48, 48.83 9.69 C49.86 10.89, 50.8 12.2, 51.6 13.56 C52.4 14.92, 53.09 16.37, 53.64 17.84 C54.18 19.32, 54.61 20.86, 54.88 22.41 C55.16 23.95, 55.23 26.33, 55.3 27.12 C55.37 27.9, 55.37 26.33, 55.3 27.12" stroke="#000000" stroke-width="1" fill="none"></path></g><g stroke-linecap="round" transform="translate(1012.495223461352 154.56343407930285) rotate(0 16.664659501237452 16.51053319476432)"><path d="M33.33 16.51 C33.33 17.47, 33.24 18.44, 33.08 19.38 C32.91 20.32, 32.65 21.26, 32.32 22.16 C31.99 23.06, 31.58 23.94, 31.1 24.77 C30.61 25.59, 30.05 26.39, 29.43 27.12 C28.81 27.86, 28.12 28.54, 27.38 29.16 C26.64 29.77, 25.83 30.33, 25 30.81 C24.16 31.29, 23.27 31.7, 22.36 32.03 C21.46 32.35, 20.51 32.6, 19.56 32.77 C18.61 32.94, 17.63 33.02, 16.66 33.02 C15.7 33.02, 14.72 32.94, 13.77 32.77 C12.82 32.6, 11.87 32.35, 10.97 32.03 C10.06 31.7, 9.17 31.29, 8.33 30.81 C7.5 30.33, 6.69 29.77, 5.95 29.16 C5.21 28.54, 4.52 27.86, 3.9 27.12 C3.28 26.39, 2.71 25.59, 2.23 24.77 C1.75 23.94, 1.33 23.06, 1.01 22.16 C0.68 21.26, 0.42 20.32, 0.25 19.38 C0.09 18.44, 0 17.47, 0 16.51 C0 15.55, 0.09 14.58, 0.25 13.64 C0.42 12.7, 0.68 11.76, 1.01 10.86 C1.33 9.97, 1.75 9.08, 2.23 8.26 C2.71 7.43, 3.28 6.63, 3.9 5.9 C4.52 5.17, 5.21 4.48, 5.95 3.86 C6.69 3.25, 7.5 2.69, 8.33 2.21 C9.17 1.73, 10.06 1.32, 10.97 1 C11.87 0.67, 12.82 0.42, 13.77 0.25 C14.72 0.08, 15.7 0, 16.66 0 C17.63 0, 18.61 0.08, 19.56 0.25 C20.51 0.42, 21.46 0.67, 22.36 1 C23.27 1.32, 24.16 1.73, 25 2.21 C25.83 2.69, 26.64 3.25, 27.38 3.86 C28.12 4.48, 28.81 5.17, 29.43 5.9 C30.05 6.63, 30.61 7.43, 31.1 8.26 C31.58 9.08, 31.99 9.97, 32.32 10.86 C32.65 11.76, 32.91 12.7, 33.08 13.64 C33.24 14.58, 33.29 16.03, 33.33 16.51 C33.37 16.99, 33.37 16.03, 33.33 16.51" stroke="none" stroke-width="0" fill="#ffffff"></path><path d="M33.33 16.51 C33.33 17.47, 33.24 18.44, 33.08 19.38 C32.91 20.32, 32.65 21.26, 32.32 22.16 C31.99 23.06, 31.58 23.94, 31.1 24.77 C30.61 25.59, 30.05 26.39, 29.43 27.12 C28.81 27.86, 28.12 28.54, 27.38 29.16 C26.64 29.77, 25.83 30.33, 25 30.81 C24.16 31.29, 23.27 31.7, 22.36 32.03 C21.46 32.35, 20.51 32.6, 19.56 32.77 C18.61 32.94, 17.63 33.02, 16.66 33.02 C15.7 33.02, 14.72 32.94, 13.77 32.77 C12.82 32.6, 11.87 32.35, 10.97 32.03 C10.06 31.7, 9.17 31.29, 8.33 30.81 C7.5 30.33, 6.69 29.77, 5.95 29.16 C5.21 28.54, 4.52 27.86, 3.9 27.12 C3.28 26.39, 2.71 25.59, 2.23 24.77 C1.75 23.94, 1.33 23.06, 1.01 22.16 C0.68 21.26, 0.42 20.32, 0.25 19.38 C0.09 18.44, 0 17.47, 0 16.51 C0 15.55, 0.09 14.58, 0.25 13.64 C0.42 12.7, 0.68 11.76, 1.01 10.86 C1.33 9.97, 1.75 9.08, 2.23 8.26 C2.71 7.43, 3.28 6.63, 3.9 5.9 C4.52 5.17, 5.21 4.48, 5.95 3.86 C6.69 3.25, 7.5 2.69, 8.33 2.21 C9.17 1.73, 10.06 1.32, 10.97 1 C11.87 0.67, 12.82 0.42, 13.77 0.25 C14.72 0.08, 15.7 0, 16.66 0 C17.63 0, 18.61 0.08, 19.56 0.25 C20.51 0.42, 21.46 0.67, 22.36 1 C23.27 1.32, 24.16 1.73, 25 2.21 C25.83 2.69, 26.64 3.25, 27.38 3.86 C28.12 4.48, 28.81 5.17, 29.43 5.9 C30.05 6.63, 30.61 7.43, 31.1 8.26 C31.58 9.08, 31.99 9.97, 32.32 10.86 C32.65 11.76, 32.91 12.7, 33.08 13.64 C33.24 14.58, 33.29 16.03, 33.33 16.51 C33.37 16.99, 33.37 16.03, 33.33 16.51" stroke="#ffffff" stroke-width="1" fill="none"></path></g><g stroke-linecap="round" transform="translate(949.6036303927383 77.51426703246682) rotate(0 4.587001011467919 10.814623281122266)"><path d="M0 0 L9.17 0 L9.17 21.63 L0 21.63" stroke="none" stroke-width="0" fill="#000000"></path><path d="M0 0 C3.32 0, 6.65 0, 9.17 0 M0 0 C2.44 0, 4.88 0, 9.17 0 M9.17 0 C9.17 8.58, 9.17 17.17, 9.17 21.63 M9.17 0 C9.17 5.24, 9.17 10.48, 9.17 21.63 M9.17 21.63 C6.96 21.63, 4.75 21.63, 0 21.63 M9.17 21.63 C6.12 21.63, 3.06 21.63, 0 21.63 M0 21.63 C0 14.08, 0 6.53, 0 0 M0 21.63 C0 15.68, 0 9.73, 0 0" stroke="#000000" stroke-width="1" fill="none"></path></g><g stroke-linecap="round" transform="translate(951.7620168677779 167.6631734347327) rotate(0 4.587001011467919 10.3367390504267)"><path d="M0 0 L9.17 0 L9.17 20.67 L0 20.67" stroke="none" stroke-width="0" fill="#000000"></path><path d="M0 0 C3.31 0, 6.63 0, 9.17 0 M0 0 C3.48 0, 6.96 0, 9.17 0 M9.17 0 C9.17 7.59, 9.17 15.19, 9.17 20.67 M9.17 0 C9.17 7.07, 9.17 14.15, 9.17 20.67 M9.17 20.67 C5.72 20.67, 2.26 20.67, 0 20.67 M9.17 20.67 C6.29 20.67, 3.41 20.67, 0 20.67 M0 20.67 C0 13.56, 0 6.45, 0 0 M0 20.67 C0 14.68, 0 8.69, 0 0" stroke="#000000" stroke-width="1" fill="none"></path></g><g stroke-linecap="round" transform="translate(992.0431880945571 142.83588434447756) rotate(303.0460002072582 4.587001011467919 10.3367390504267)"><path d="M0 0 L9.17 0 L9.17 20.67 L0 20.67" stroke="none" stroke-width="0" fill="#000000"></path><path d="M0 0 C2.52 0, 5.04 0, 9.17 0 M0 0 C3.06 0, 6.11 0, 9.17 0 M9.17 0 C9.17 7.75, 9.17 15.5, 9.17 20.67 M9.17 0 C9.17 7.91, 9.17 15.83, 9.17 20.67 M9.17 20.67 C6.76 20.67, 4.34 20.67, 0 20.67 M9.17 20.67 C6.99 20.67, 4.81 20.67, 0 20.67 M0 20.67 C0 12.58, 0 4.48, 0 0 M0 20.67 C0 13.19, 0 5.7, 0 0" stroke="#000000" stroke-width="1" fill="none"></path></g><g stroke-linecap="round" transform="translate(988.8599650826454 98.58273713016615) rotate(233.50826307900493 4.587001011467919 10.3367390504267)"><path d="M0 0 L9.17 0 L9.17 20.67 L0 20.67" stroke="none" stroke-width="0" fill="#000000"></path><path d="M0 0 C3.33 0, 6.67 0, 9.17 0 M0 0 C1.85 0, 3.7 0, 9.17 0 M9.17 0 C9.17 6.02, 9.17 12.04, 9.17 20.67 M9.17 0 C9.17 7.56, 9.17 15.11, 9.17 20.67 M9.17 20.67 C5.82 20.67, 2.48 20.67, 0 20.67 M9.17 20.67 C6.06 20.67, 2.96 20.67, 0 20.67 M0 20.67 C0 14.15, 0 7.62, 0 0 M0 20.67 C0 16.25, 0 11.82, 0 0" stroke="#000000" stroke-width="1" fill="none"></path></g><g stroke-linecap="round" transform="translate(260.4181065854344 231.9258337765234) rotate(349.49460188942567 57.58952140695774 56.95379943118803)"><path d="M115.18 56.95 C115.18 59.24, 115.04 61.55, 114.76 63.82 C114.48 66.09, 114.06 68.36, 113.51 70.58 C112.95 72.81, 112.26 75.01, 111.44 77.15 C110.62 79.29, 109.66 81.4, 108.58 83.42 C107.51 85.45, 106.3 87.42, 104.98 89.31 C103.67 91.19, 102.23 93.01, 100.7 94.72 C99.16 96.43, 97.51 98.07, 95.78 99.58 C94.05 101.1, 92.21 102.53, 90.3 103.83 C88.4 105.13, 86.4 106.32, 84.35 107.38 C82.3 108.45, 80.17 109.4, 78.01 110.21 C75.85 111.02, 73.62 111.7, 71.37 112.25 C69.12 112.8, 66.83 113.22, 64.53 113.49 C62.23 113.77, 59.9 113.91, 57.59 113.91 C55.28 113.91, 52.94 113.77, 50.65 113.49 C48.35 113.22, 46.05 112.8, 43.81 112.25 C41.56 111.7, 39.33 111.02, 37.17 110.21 C35 109.4, 32.88 108.45, 30.83 107.38 C28.78 106.32, 26.78 105.13, 24.87 103.83 C22.97 102.53, 21.13 101.1, 19.4 99.58 C17.67 98.07, 16.02 96.43, 14.48 94.72 C12.95 93.01, 11.51 91.19, 10.19 89.31 C8.88 87.42, 7.67 85.45, 6.6 83.42 C5.52 81.4, 4.56 79.29, 3.74 77.15 C2.92 75.01, 2.23 72.81, 1.67 70.58 C1.12 68.36, 0.7 66.09, 0.42 63.82 C0.14 61.55, 0 59.24, 0 56.95 C0 54.67, 0.14 52.36, 0.42 50.09 C0.7 47.82, 1.12 45.55, 1.67 43.32 C2.23 41.1, 2.92 38.9, 3.74 36.76 C4.56 34.62, 5.52 32.51, 6.6 30.49 C7.67 28.46, 8.88 26.48, 10.19 24.6 C11.51 22.72, 12.95 20.9, 14.48 19.19 C16.02 17.47, 17.67 15.84, 19.4 14.32 C21.13 12.81, 22.97 11.38, 24.87 10.08 C26.78 8.78, 28.78 7.59, 30.83 6.52 C32.88 5.46, 35 4.51, 37.17 3.7 C39.33 2.89, 41.56 2.2, 43.81 1.65 C46.05 1.11, 48.35 0.69, 50.65 0.42 C52.94 0.14, 55.28 0, 57.59 0 C59.9 0, 62.23 0.14, 64.53 0.42 C66.83 0.69, 69.12 1.11, 71.37 1.65 C73.62 2.2, 75.85 2.89, 78.01 3.7 C80.17 4.51, 82.3 5.46, 84.35 6.52 C86.4 7.59, 88.4 8.78, 90.3 10.08 C92.21 11.38, 94.05 12.81, 95.78 14.32 C97.51 15.84, 99.16 17.47, 100.7 19.19 C102.23 20.9, 103.67 22.72, 104.98 24.6 C106.3 26.48, 107.51 28.46, 108.58 30.49 C109.66 32.51, 110.62 34.62, 111.44 36.76 C112.26 38.9, 112.95 41.1, 113.51 43.32 C114.06 45.55, 114.48 47.82, 114.76 50.09 C115.04 52.36, 115.18 54.67, 115.18 56.95" stroke="none" stroke-width="0" fill="#82c91e"></path><path d="M115.18 56.95 C115.18 59.24, 115.04 61.55, 114.76 63.82 C114.48 66.09, 114.06 68.36, 113.51 70.58 C112.95 72.81, 112.26 75.01, 111.44 77.15 C110.62 79.29, 109.66 81.4, 108.58 83.42 C107.51 85.45, 106.3 87.42, 104.98 89.31 C103.67 91.19, 102.23 93.01, 100.7 94.72 C99.16 96.43, 97.51 98.07, 95.78 99.58 C94.05 101.1, 92.21 102.53, 90.3 103.83 C88.4 105.13, 86.4 106.32, 84.35 107.38 C82.3 108.45, 80.17 109.4, 78.01 110.21 C75.85 111.02, 73.62 111.7, 71.37 112.25 C69.12 112.8, 66.83 113.22, 64.53 113.49 C62.23 113.77, 59.9 113.91, 57.59 113.91 C55.28 113.91, 52.94 113.77, 50.65 113.49 C48.35 113.22, 46.05 112.8, 43.81 112.25 C41.56 111.7, 39.33 111.02, 37.17 110.21 C35 109.4, 32.88 108.45, 30.83 107.38 C28.78 106.32, 26.78 105.13, 24.87 103.83 C22.97 102.53, 21.13 101.1, 19.4 99.58 C17.67 98.07, 16.02 96.43, 14.48 94.72 C12.95 93.01, 11.51 91.19, 10.19 89.31 C8.88 87.42, 7.67 85.45, 6.6 83.42 C5.52 81.4, 4.56 79.29, 3.74 77.15 C2.92 75.01, 2.23 72.81, 1.67 70.58 C1.12 68.36, 0.7 66.09, 0.42 63.82 C0.14 61.55, 0 59.24, 0 56.95 C0 54.67, 0.14 52.36, 0.42 50.09 C0.7 47.82, 1.12 45.55, 1.67 43.32 C2.23 41.1, 2.92 38.9, 3.74 36.76 C4.56 34.62, 5.52 32.51, 6.6 30.49 C7.67 28.46, 8.88 26.48, 10.19 24.6 C11.51 22.72, 12.95 20.9, 14.48 19.19 C16.02 17.47, 17.67 15.84, 19.4 14.32 C21.13 12.81, 22.97 11.38, 24.87 10.08 C26.78 8.78, 28.78 7.59, 30.83 6.52 C32.88 5.46, 35 4.51, 37.17 3.7 C39.33 2.89, 41.56 2.2, 43.81 1.65 C46.05 1.11, 48.35 0.69, 50.65 0.42 C52.94 0.14, 55.28 0, 57.59 0 C59.9 0, 62.23 0.14, 64.53 0.42 C66.83 0.69, 69.12 1.11, 71.37 1.65 C73.62 2.2, 75.85 2.89, 78.01 3.7 C80.17 4.51, 82.3 5.46, 84.35 6.52 C86.4 7.59, 88.4 8.78, 90.3 10.08 C92.21 11.38, 94.05 12.81, 95.78 14.32 C97.51 15.84, 99.16 17.47, 100.7 19.19 C102.23 20.9, 103.67 22.72, 104.98 24.6 C106.3 26.48, 107.51 28.46, 108.58 30.49 C109.66 32.51, 110.62 34.62, 111.44 36.76 C112.26 38.9, 112.95 41.1, 113.51 43.32 C114.06 45.55, 114.48 47.82, 114.76 50.09 C115.04 52.36, 115.18 54.67, 115.18 56.95" stroke="#bfc548" stroke-width="2" fill="none"></path></g><g stroke-linecap="round"><g transform="translate(282.0647969408424 320.3351152721291) rotate(349.49460188942567 46.30497999622074 -28.234253399912916)" fill-rule="evenodd"><path d="M0 0 L0.3 1.09 L-4.78 -5.5 L-9.1 -13.29 L-10.28 -20.62 L-9.77 -27.47 L-7.98 -32.81 L-0.83 -41.72 L5 -45.44 L14 -48.53 L24.13 -50.42 L33.05 -50.21 L71.38 -44.04 L80.37 -45.29 L87.07 -48.12 L92.7 -51.64 L97.09 -56.01 L102.12 -66.69 L102.83 -66.87 L100.97 -47.54 L99.64 -40.77 L96.55 -31.58 L91.87 -23.61 L85.22 -15.34 L75.93 -7.25 L62.23 1.57 L47.14 8.53 L32.99 10.77 L20 9.95 L8.5 5.73 L-1.1 0.34 L0 0" stroke="none" stroke-width="0" fill="#ffffff" fill-rule="evenodd"></path><path d="M0 0 C-0.08 0.08, 1.04 2.67, -0.48 0.46 C-2 -1.76, -7.55 -8.63, -9.1 -13.29 C-10.65 -17.94, -10.47 -23.45, -9.77 -27.47 C-9.06 -31.49, -7.34 -34.39, -4.88 -37.38 C-2.41 -40.38, 0.17 -43.26, 5 -45.44 C9.84 -47.61, 17.78 -49.86, 24.13 -50.42 C30.48 -50.98, 35.23 -49.85, 43.11 -48.79 C50.98 -47.73, 64.05 -44.15, 71.38 -44.04 C78.71 -43.93, 82.79 -46.12, 87.07 -48.12 C91.36 -50.11, 94.47 -52.88, 97.09 -56.01 C99.72 -59.13, 102.4 -69.41, 102.83 -66.87 C103.25 -64.33, 101.47 -47.98, 99.64 -40.77 C97.81 -33.56, 95.82 -29.19, 91.87 -23.61 C87.92 -18.02, 83.39 -12.61, 75.93 -7.25 C68.48 -1.9, 56.46 5.67, 47.14 8.53 C37.81 11.4, 27.79 11.17, 20 9.95 C12.2 8.72, 3.69 2.86, 0.36 1.2 C-2.98 -0.46, 0.06 0.2, 0 0 M0 0 C-0.08 0.08, 1.04 2.67, -0.48 0.46 C-2 -1.76, -7.55 -8.63, -9.1 -13.29 C-10.65 -17.94, -10.47 -23.45, -9.77 -27.47 C-9.06 -31.49, -7.34 -34.39, -4.88 -37.38 C-2.41 -40.38, 0.17 -43.26, 5 -45.44 C9.84 -47.61, 17.78 -49.86, 24.13 -50.42 C30.48 -50.98, 35.23 -49.85, 43.11 -48.79 C50.98 -47.73, 64.05 -44.15, 71.38 -44.04 C78.71 -43.93, 82.79 -46.12, 87.07 -48.12 C91.36 -50.11, 94.47 -52.88, 97.09 -56.01 C99.72 -59.13, 102.4 -69.41, 102.83 -66.87 C103.25 -64.33, 101.47 -47.98, 99.64 -40.77 C97.81 -33.56, 95.82 -29.19, 91.87 -23.61 C87.92 -18.02, 83.39 -12.61, 75.93 -7.25 C68.48 -1.9, 56.46 5.67, 47.14 8.53 C37.81 11.4, 27.79 11.17, 20 9.95 C12.2 8.72, 3.69 2.86, 0.36 1.2 C-2.98 -0.46, 0.06 0.2, 0 0" stroke="#bfc548" stroke-width="2" fill="none"></path></g></g><g stroke-linecap="round"><g transform="translate(291.71510485115016 315.65170449856896) rotate(349.49460188942567 30.579824707163937 -9.924351699762525)" fill-rule="evenodd"><path d="M0 0 L18.6 -1.44 L26.87 -2.83 L45.37 -7.93 L53.62 -11.2 L66.79 -19.51 L73.2 -27.52 L73.7 -27.14 L67.31 -16.24 L61.96 -10.46 L54.48 -4.56 L48.36 -1.04 L33.63 3.83 L20.41 6.6 L-0.01 7.72 L-5.99 7 L-10.77 3.74 L-12.4 0.48 L0 0" stroke="none" stroke-width="0" fill="#82c91e" fill-rule="evenodd"></path><path d="M0 0 C1.36 -0.11, 5.04 -0.43, 8.14 -0.67 C11.24 -0.91, 13.95 -0.73, 18.6 -1.44 C23.25 -2.14, 30.2 -3.29, 36.03 -4.91 C41.87 -6.54, 49.24 -9.23, 53.62 -11.2 C58 -13.18, 60.09 -15.39, 62.29 -16.77 C64.48 -18.15, 65.46 -18.35, 66.79 -19.51 C68.11 -20.67, 69.17 -22.39, 70.24 -23.72 C71.31 -25.06, 72.72 -27.28, 73.2 -27.52 C73.67 -27.76, 74.1 -27.04, 73.12 -25.16 C72.13 -23.28, 68.58 -18.04, 67.31 -16.24 C66.03 -14.45, 66.08 -15.05, 65.44 -14.39 C64.81 -13.74, 64.53 -13.38, 63.51 -12.32 C62.48 -11.25, 61.81 -9.88, 59.28 -8 C56.76 -6.12, 52.64 -3.02, 48.36 -1.04 C44.09 0.93, 38.29 2.56, 33.63 3.83 C28.97 5.11, 24.87 5.99, 20.41 6.6 C15.94 7.21, 11.26 7.44, 6.87 7.5 C2.47 7.57, -2.78 8.17, -5.99 7 C-9.2 5.83, -13.4 1.65, -12.4 0.48 C-11.4 -0.68, -2.07 0.08, 0 0 M0 0 C1.36 -0.11, 5.04 -0.43, 8.14 -0.67 C11.24 -0.91, 13.95 -0.73, 18.6 -1.44 C23.25 -2.14, 30.2 -3.29, 36.03 -4.91 C41.87 -6.54, 49.24 -9.23, 53.62 -11.2 C58 -13.18, 60.09 -15.39, 62.29 -16.77 C64.48 -18.15, 65.46 -18.35, 66.79 -19.51 C68.11 -20.67, 69.17 -22.39, 70.24 -23.72 C71.31 -25.06, 72.72 -27.28, 73.2 -27.52 C73.67 -27.76, 74.1 -27.04, 73.12 -25.16 C72.13 -23.28, 68.58 -18.04, 67.31 -16.24 C66.03 -14.45, 66.08 -15.05, 65.44 -14.39 C64.81 -13.74, 64.53 -13.38, 63.51 -12.32 C62.48 -11.25, 61.81 -9.88, 59.28 -8 C56.76 -6.12, 52.64 -3.02, 48.36 -1.04 C44.09 0.93, 38.29 2.56, 33.63 3.83 C28.97 5.11, 24.87 5.99, 20.41 6.6 C15.94 7.21, 11.26 7.44, 6.87 7.5 C2.47 7.57, -2.78 8.17, -5.99 7 C-9.2 5.83, -13.4 1.65, -12.4 0.48 C-11.4 -0.68, -2.07 0.08, 0 0" stroke="#bfc548" stroke-width="2" fill="none"></path></g></g><g stroke-linecap="round" transform="translate(275.8598936287754 323.7303956260166) rotate(349.49460188942567 4.320404126954315 4.1688329760811484)"><path d="M8.64 4.17 C8.64 4.41, 8.62 4.66, 8.58 4.89 C8.53 5.13, 8.47 5.37, 8.38 5.59 C8.29 5.82, 8.19 6.04, 8.06 6.25 C7.94 6.46, 7.79 6.66, 7.63 6.85 C7.47 7.03, 7.29 7.21, 7.1 7.36 C6.91 7.52, 6.7 7.66, 6.48 7.78 C6.26 7.9, 6.03 8, 5.8 8.09 C5.56 8.17, 5.32 8.23, 5.07 8.27 C4.82 8.32, 4.57 8.34, 4.32 8.34 C4.07 8.34, 3.82 8.32, 3.57 8.27 C3.32 8.23, 3.08 8.17, 2.84 8.09 C2.61 8, 2.38 7.9, 2.16 7.78 C1.94 7.66, 1.73 7.52, 1.54 7.36 C1.35 7.21, 1.17 7.03, 1.01 6.85 C0.85 6.66, 0.7 6.46, 0.58 6.25 C0.45 6.04, 0.35 5.82, 0.26 5.59 C0.18 5.37, 0.11 5.13, 0.07 4.89 C0.02 4.66, 0 4.41, 0 4.17 C0 3.93, 0.02 3.68, 0.07 3.44 C0.11 3.21, 0.18 2.97, 0.26 2.74 C0.35 2.52, 0.45 2.29, 0.58 2.08 C0.7 1.88, 0.85 1.67, 1.01 1.49 C1.17 1.3, 1.35 1.13, 1.54 0.98 C1.73 0.82, 1.94 0.68, 2.16 0.56 C2.38 0.44, 2.61 0.33, 2.84 0.25 C3.08 0.17, 3.32 0.11, 3.57 0.06 C3.82 0.02, 4.07 0, 4.32 0 C4.57 0, 4.82 0.02, 5.07 0.06 C5.32 0.11, 5.56 0.17, 5.8 0.25 C6.03 0.33, 6.26 0.44, 6.48 0.56 C6.7 0.68, 6.91 0.82, 7.1 0.98 C7.29 1.13, 7.47 1.3, 7.63 1.49 C7.79 1.67, 7.94 1.88, 8.06 2.08 C8.19 2.29, 8.29 2.52, 8.38 2.74 C8.47 2.97, 8.53 3.21, 8.58 3.44 C8.62 3.68, 8.63 4.05, 8.64 4.17 C8.65 4.29, 8.65 4.05, 8.64 4.17" stroke="none" stroke-width="0" fill="#ffffff"></path><path d="M8.64 4.17 C8.64 4.41, 8.62 4.66, 8.58 4.89 C8.53 5.13, 8.47 5.37, 8.38 5.59 C8.29 5.82, 8.19 6.04, 8.06 6.25 C7.94 6.46, 7.79 6.66, 7.63 6.85 C7.47 7.03, 7.29 7.21, 7.1 7.36 C6.91 7.52, 6.7 7.66, 6.48 7.78 C6.26 7.9, 6.03 8, 5.8 8.09 C5.56 8.17, 5.32 8.23, 5.07 8.27 C4.82 8.32, 4.57 8.34, 4.32 8.34 C4.07 8.34, 3.82 8.32, 3.57 8.27 C3.32 8.23, 3.08 8.17, 2.84 8.09 C2.61 8, 2.38 7.9, 2.16 7.78 C1.94 7.66, 1.73 7.52, 1.54 7.36 C1.35 7.21, 1.17 7.03, 1.01 6.85 C0.85 6.66, 0.7 6.46, 0.58 6.25 C0.45 6.04, 0.35 5.82, 0.26 5.59 C0.18 5.37, 0.11 5.13, 0.07 4.89 C0.02 4.66, 0 4.41, 0 4.17 C0 3.93, 0.02 3.68, 0.07 3.44 C0.11 3.21, 0.18 2.97, 0.26 2.74 C0.35 2.52, 0.45 2.29, 0.58 2.08 C0.7 1.88, 0.85 1.67, 1.01 1.49 C1.17 1.3, 1.35 1.13, 1.54 0.98 C1.73 0.82, 1.94 0.68, 2.16 0.56 C2.38 0.44, 2.61 0.33, 2.84 0.25 C3.08 0.17, 3.32 0.11, 3.57 0.06 C3.82 0.02, 4.07 0, 4.32 0 C4.57 0, 4.82 0.02, 5.07 0.06 C5.32 0.11, 5.56 0.17, 5.8 0.25 C6.03 0.33, 6.26 0.44, 6.48 0.56 C6.7 0.68, 6.91 0.82, 7.1 0.98 C7.29 1.13, 7.47 1.3, 7.63 1.49 C7.79 1.67, 7.94 1.88, 8.06 2.08 C8.19 2.29, 8.29 2.52, 8.38 2.74 C8.47 2.97, 8.53 3.21, 8.58 3.44 C8.62 3.68, 8.63 4.05, 8.64 4.17 C8.65 4.29, 8.65 4.05, 8.64 4.17" stroke="#bfc548" stroke-width="2" fill="none"></path></g><g stroke-linecap="round"><g transform="translate(927.0545137516574 359.8732058566218) rotate(0 60.447399349768546 13.43798288875854)" fill-rule="evenodd"><path d="M0 0 L-0.18 24.21 L1.05 32.12 L6.29 39.15 L14.72 44.96 L26.34 48.98 L41.01 51.38 L60.09 52.15 L79.13 51.38 L93.65 49.14 L105.16 45.52 L113.72 40.8 L119.23 34.49 L121.08 25.67 L121.05 6.5 L118.97 -2.51 L112.61 -10.93 L103.06 -17.87 L90.43 -22.22 L75.45 -24.58 L58.08 -25.27 L40.75 -24.02 L25.82 -20.46 L13.54 -15.08 L5.07 -6.98 L0 0" stroke="none" stroke-width="0" fill="#228be6" fill-rule="evenodd"></path><path d="M0 0 C0.04 2.65, 0.09 10.57, 0.26 15.92 C0.44 21.27, -1.36 27.27, 1.05 32.12 C3.46 36.96, 8.06 41.75, 14.72 44.96 C21.38 48.17, 30.28 50.31, 41.01 51.38 C51.75 52.46, 68.44 52.36, 79.13 51.38 C89.83 50.41, 98.48 48.34, 105.16 45.52 C111.84 42.7, 116.6 39.42, 119.23 34.49 C121.86 29.56, 120.98 22.09, 120.94 15.92 C120.89 9.75, 121.94 3.12, 118.97 -2.51 C115.99 -8.15, 110.31 -14.2, 103.06 -17.87 C95.81 -21.55, 85.84 -23.55, 75.45 -24.58 C65.07 -25.6, 51.07 -25.6, 40.75 -24.02 C30.43 -22.43, 20.33 -19.08, 13.54 -15.08 C6.75 -11.08, 2.26 -2.51, 0 0 M0 0 C0.04 2.65, 0.09 10.57, 0.26 15.92 C0.44 21.27, -1.36 27.27, 1.05 32.12 C3.46 36.96, 8.06 41.75, 14.72 44.96 C21.38 48.17, 30.28 50.31, 41.01 51.38 C51.75 52.46, 68.44 52.36, 79.13 51.38 C89.83 50.41, 98.48 48.34, 105.16 45.52 C111.84 42.7, 116.6 39.42, 119.23 34.49 C121.86 29.56, 120.98 22.09, 120.94 15.92 C120.89 9.75, 121.94 3.12, 118.97 -2.51 C115.99 -8.15, 110.31 -14.2, 103.06 -17.87 C95.81 -21.55, 85.84 -23.55, 75.45 -24.58 C65.07 -25.6, 51.07 -25.6, 40.75 -24.02 C30.43 -22.43, 20.33 -19.08, 13.54 -15.08 C6.75 -11.08, 2.26 -2.51, 0 0" stroke="#000000" stroke-width="1" fill="none"></path></g></g><g stroke-linecap="round" transform="translate(937.7516383984728 338.37400332647735) rotate(0 49.28775029528322 18.84942291745955)"><path d="M98.58 18.85 C98.58 19.83, 98.37 20.83, 97.97 21.8 C97.57 22.77, 96.96 23.74, 96.16 24.67 C95.37 25.61, 94.37 26.53, 93.2 27.41 C92.04 28.28, 90.67 29.13, 89.16 29.93 C87.65 30.72, 85.96 31.48, 84.14 32.18 C82.32 32.87, 80.34 33.52, 78.26 34.1 C76.18 34.68, 73.95 35.2, 71.66 35.64 C69.37 36.09, 66.96 36.47, 64.52 36.78 C62.07 37.08, 59.54 37.31, 57 37.47 C54.46 37.62, 51.86 37.7, 49.29 37.7 C46.72 37.7, 44.12 37.62, 41.58 37.47 C39.04 37.31, 36.5 37.08, 34.06 36.78 C31.61 36.47, 29.2 36.09, 26.91 35.64 C24.62 35.2, 22.4 34.68, 20.32 34.1 C18.24 33.52, 16.25 32.87, 14.44 32.18 C12.62 31.48, 10.92 30.72, 9.41 29.93 C7.9 29.13, 6.54 28.28, 5.37 27.41 C4.21 26.53, 3.21 25.61, 2.41 24.67 C1.62 23.74, 1.01 22.77, 0.61 21.8 C0.2 20.83, 0 19.83, 0 18.85 C0 17.87, 0.2 16.87, 0.61 15.9 C1.01 14.93, 1.62 13.96, 2.41 13.02 C3.21 12.09, 4.21 11.17, 5.37 10.29 C6.54 9.42, 7.9 8.57, 9.41 7.77 C10.92 6.97, 12.62 6.22, 14.44 5.52 C16.25 4.83, 18.24 4.18, 20.32 3.6 C22.4 3.02, 24.62 2.5, 26.91 2.05 C29.2 1.61, 31.61 1.23, 34.06 0.92 C36.5 0.62, 39.04 0.39, 41.58 0.23 C44.12 0.08, 46.72 0, 49.29 0 C51.86 0, 54.46 0.08, 57 0.23 C59.54 0.39, 62.07 0.62, 64.52 0.92 C66.96 1.23, 69.37 1.61, 71.66 2.05 C73.95 2.5, 76.18 3.02, 78.26 3.6 C80.34 4.18, 82.32 4.83, 84.14 5.52 C85.96 6.22, 87.65 6.97, 89.16 7.77 C90.67 8.57, 92.04 9.42, 93.2 10.29 C94.37 11.17, 95.37 12.09, 96.16 13.02 C96.96 13.96, 97.57 14.93, 97.97 15.9 C98.37 16.87, 98.47 18.36, 98.58 18.85 C98.68 19.34, 98.68 18.36, 98.58 18.85" stroke="none" stroke-width="0" fill="#ffffff"></path><path d="M98.58 18.85 C98.58 19.83, 98.37 20.83, 97.97 21.8 C97.57 22.77, 96.96 23.74, 96.16 24.67 C95.37 25.61, 94.37 26.53, 93.2 27.41 C92.04 28.28, 90.67 29.13, 89.16 29.93 C87.65 30.72, 85.96 31.48, 84.14 32.18 C82.32 32.87, 80.34 33.52, 78.26 34.1 C76.18 34.68, 73.95 35.2, 71.66 35.64 C69.37 36.09, 66.96 36.47, 64.52 36.78 C62.07 37.08, 59.54 37.31, 57 37.47 C54.46 37.62, 51.86 37.7, 49.29 37.7 C46.72 37.7, 44.12 37.62, 41.58 37.47 C39.04 37.31, 36.5 37.08, 34.06 36.78 C31.61 36.47, 29.2 36.09, 26.91 35.64 C24.62 35.2, 22.4 34.68, 20.32 34.1 C18.24 33.52, 16.25 32.87, 14.44 32.18 C12.62 31.48, 10.92 30.72, 9.41 29.93 C7.9 29.13, 6.54 28.28, 5.37 27.41 C4.21 26.53, 3.21 25.61, 2.41 24.67 C1.62 23.74, 1.01 22.77, 0.61 21.8 C0.2 20.83, 0 19.83, 0 18.85 C0 17.87, 0.2 16.87, 0.61 15.9 C1.01 14.93, 1.62 13.96, 2.41 13.02 C3.21 12.09, 4.21 11.17, 5.37 10.29 C6.54 9.42, 7.9 8.57, 9.41 7.77 C10.92 6.97, 12.62 6.22, 14.44 5.52 C16.25 4.83, 18.24 4.18, 20.32 3.6 C22.4 3.02, 24.62 2.5, 26.91 2.05 C29.2 1.61, 31.61 1.23, 34.06 0.92 C36.5 0.62, 39.04 0.39, 41.58 0.23 C44.12 0.08, 46.72 0, 49.29 0 C51.86 0, 54.46 0.08, 57 0.23 C59.54 0.39, 62.07 0.62, 64.52 0.92 C66.96 1.23, 69.37 1.61, 71.66 2.05 C73.95 2.5, 76.18 3.02, 78.26 3.6 C80.34 4.18, 82.32 4.83, 84.14 5.52 C85.96 6.22, 87.65 6.97, 89.16 7.77 C90.67 8.57, 92.04 9.42, 93.2 10.29 C94.37 11.17, 95.37 12.09, 96.16 13.02 C96.96 13.96, 97.57 14.93, 97.97 15.9 C98.37 16.87, 98.47 18.36, 98.58 18.85 C98.68 19.34, 98.68 18.36, 98.58 18.85" stroke="#000000" stroke-width="1" fill="none"></path></g><g stroke-linecap="round"><g transform="translate(927.5950660287142 403.0007918425058) rotate(0 59.63087515138466 24.819334688232175)" fill-rule="evenodd"><path d="M0 0 L0.33 24.12 L2.22 32.43 L8.16 38.57 L17.07 43.29 L28.53 46.87 L42.77 49.08 L61.51 49.62 L79.92 48.9 L92.94 47.3 L103.01 44.55 L111.07 40.64 L116.55 35.2 L118.68 27.38 L119.24 8.88 L118.23 0.62 L115.11 3.76 L101.24 10.24 L90.96 12.77 L78.22 14.53 L61.68 15.33 L44.66 14.97 L30.2 13.14 L17.73 10 L7.18 4.69 L0 0" stroke="none" stroke-width="0" fill="#4c6ef5" fill-rule="evenodd"></path><path d="M0 0 C0.04 2.54, -0.11 9.86, 0.26 15.26 C0.63 20.67, -0.58 27.76, 2.22 32.43 C5.03 37.1, 10.31 40.51, 17.07 43.29 C23.83 46.06, 32.3 48.15, 42.77 49.08 C53.25 50.02, 69.88 49.65, 79.92 48.9 C89.96 48.14, 96.91 46.84, 103.01 44.55 C109.12 42.27, 113.87 39.53, 116.55 35.2 C119.22 30.87, 118.72 24.2, 119.07 18.59 C119.42 12.98, 119.31 3.99, 118.65 1.52 C117.99 -0.95, 118.01 2.3, 115.11 3.76 C112.21 5.21, 107.39 8.44, 101.24 10.24 C95.1 12.04, 87.65 13.75, 78.22 14.53 C68.79 15.32, 54.74 15.72, 44.66 14.97 C34.58 14.21, 25.17 12.5, 17.73 10 C10.29 7.51, 2.95 1.67, 0 0 M0 0 C0.04 2.54, -0.11 9.86, 0.26 15.26 C0.63 20.67, -0.58 27.76, 2.22 32.43 C5.03 37.1, 10.31 40.51, 17.07 43.29 C23.83 46.06, 32.3 48.15, 42.77 49.08 C53.25 50.02, 69.88 49.65, 79.92 48.9 C89.96 48.14, 96.91 46.84, 103.01 44.55 C109.12 42.27, 113.87 39.53, 116.55 35.2 C119.22 30.87, 118.72 24.2, 119.07 18.59 C119.42 12.98, 119.31 3.99, 118.65 1.52 C117.99 -0.95, 118.01 2.3, 115.11 3.76 C112.21 5.21, 107.39 8.44, 101.24 10.24 C95.1 12.04, 87.65 13.75, 78.22 14.53 C68.79 15.32, 54.74 15.72, 44.66 14.97 C34.58 14.21, 25.17 12.5, 17.73 10 C10.29 7.51, 2.95 1.67, 0 0" stroke="#000000" stroke-width="1" fill="none"></path></g></g><g stroke-linecap="round"><g transform="translate(927.656413043873 443.5003393616839) rotate(0 59.63087515138466 24.121817848428975)" fill-rule="evenodd"><path d="M0 0 L0.33 23.44 L2.22 31.52 L8.16 37.49 L17.07 42.07 L28.53 45.56 L42.77 47.7 L61.51 48.23 L79.92 47.52 L92.94 45.97 L103.01 43.3 L111.07 39.5 L116.55 34.21 L118.68 26.61 L119.24 8.63 L118.23 0.61 L115.11 3.65 L101.24 9.95 L90.96 12.41 L78.22 14.13 L61.68 14.9 L44.66 14.55 L30.2 12.77 L17.73 9.72 L7.18 4.56 L0 0" stroke="none" stroke-width="0" fill="#228be6" fill-rule="evenodd"></path><path d="M0 0 C0.04 2.47, -0.11 9.58, 0.26 14.83 C0.63 20.09, -0.58 26.98, 2.22 31.52 C5.03 36.06, 10.31 39.37, 17.07 42.07 C23.83 44.77, 32.3 46.79, 42.77 47.7 C53.25 48.61, 69.88 48.26, 79.92 47.52 C89.96 46.79, 96.91 45.52, 103.01 43.3 C109.12 41.08, 113.87 38.42, 116.55 34.21 C119.22 30, 118.72 23.52, 119.07 18.07 C119.42 12.61, 119.31 3.88, 118.65 1.48 C117.99 -0.92, 118.01 2.24, 115.11 3.65 C112.21 5.06, 107.39 8.21, 101.24 9.95 C95.1 11.7, 87.65 13.36, 78.22 14.13 C68.79 14.89, 54.74 15.28, 44.66 14.55 C34.58 13.81, 25.17 12.15, 17.73 9.72 C10.29 7.3, 2.95 1.62, 0 0 M0 0 C0.04 2.47, -0.11 9.58, 0.26 14.83 C0.63 20.09, -0.58 26.98, 2.22 31.52 C5.03 36.06, 10.31 39.37, 17.07 42.07 C23.83 44.77, 32.3 46.79, 42.77 47.7 C53.25 48.61, 69.88 48.26, 79.92 47.52 C89.96 46.79, 96.91 45.52, 103.01 43.3 C109.12 41.08, 113.87 38.42, 116.55 34.21 C119.22 30, 118.72 23.52, 119.07 18.07 C119.42 12.61, 119.31 3.88, 118.65 1.48 C117.99 -0.92, 118.01 2.24, 115.11 3.65 C112.21 5.06, 107.39 8.21, 101.24 9.95 C95.1 11.7, 87.65 13.36, 78.22 14.13 C68.79 14.89, 54.74 15.28, 44.66 14.55 C34.58 13.81, 25.17 12.15, 17.73 9.72 C10.29 7.3, 2.95 1.62, 0 0" stroke="#000000" stroke-width="1" fill="none"></path></g></g><g transform="translate(389.330265856867 271.35511067863104) rotate(0 69.00000000000003 16)"><text x="69" y="26" font-family="Helvetica, Segoe UI Emoji" font-size="28px" fill="#c92a2a" text-anchor="middle" style="white-space: pre;" direction="ltr">Application</text></g><g transform="translate(923.2385005783492 250.94300988273358) rotate(0 58.5 11.5)"><text x="0" y="19" font-family="Helvetica, Segoe UI Emoji" font-size="20px" fill="#c92a2a" text-anchor="start" style="white-space: pre;" direction="ltr">Kafka Broker</text></g><g transform="translate(949.3218067849464 505.6374229618891) rotate(0 43 11.5)"><text x="0" y="19" font-family="Helvetica, Segoe UI Emoji" font-size="20px" fill="#c92a2a" text-anchor="start" style="white-space: pre;" direction="ltr">Database</text></g><g stroke-linecap="round"><g transform="translate(658.571905119365 118.76343683290906) rotate(0 121.35074101506262 0.34861644541697956)"><path d="M0 0 C40.45 0.12, 202.25 0.58, 242.7 0.7 M0 0 C40.45 0.12, 202.25 0.58, 242.7 0.7" stroke="#2b8a3e" stroke-width="2" fill="none"></path></g><g transform="translate(658.571905119365 118.76343683290906) rotate(0 121.35074101506262 0.34861644541697956)"><path d="M242.7 0.7 L229.09 7 L229.13 -5.68 L242.7 0.7" stroke="none" stroke-width="0" fill="#2b8a3e" fill-rule="evenodd"></path><path d="M242.7 0.7 C238.83 2.49, 234.95 4.29, 229.09 7 M242.7 0.7 C237.62 3.05, 232.54 5.4, 229.09 7 M229.09 7 C229.1 2.88, 229.11 -1.24, 229.13 -5.68 M229.09 7 C229.1 3.3, 229.11 -0.4, 229.13 -5.68 M229.13 -5.68 C232.41 -4.14, 235.69 -2.59, 242.7 0.7 M229.13 -5.68 C232.82 -3.94, 236.52 -2.21, 242.7 0.7 M242.7 0.7 C242.7 0.7, 242.7 0.7, 242.7 0.7 M242.7 0.7 C242.7 0.7, 242.7 0.7, 242.7 0.7" stroke="#2b8a3e" stroke-width="2" fill="none"></path></g></g><g stroke-linecap="round"><g transform="translate(658.7940137483797 118.6652041305091) rotate(0 0 67.05561531914603)"><path d="M0 0 C0 22.35, 0 111.76, 0 134.11 M0 0 C0 22.35, 0 111.76, 0 134.11" stroke="#087f5b" stroke-width="2" fill="none"></path></g></g><g stroke-linecap="round"><g transform="translate(659.2765941987034 426.5665601345006) rotate(0 120.46195046059222 0.348624922522049)"><path d="M0 0 C40.15 0.12, 200.77 0.58, 240.92 0.7 M0 0 C40.15 0.12, 200.77 0.58, 240.92 0.7" stroke="#087f5b" stroke-width="2" fill="none"></path></g><g transform="translate(659.2765941987034 426.5665601345006) rotate(0 120.46195046059222 0.348624922522049)"><path d="M240.92 0.7 L227.31 7 L227.35 -5.68 L240.92 0.7" stroke="none" stroke-width="0" fill="#087f5b" fill-rule="evenodd"></path><path d="M240.92 0.7 C238.14 1.98, 235.36 3.27, 227.31 7 M240.92 0.7 C236.58 2.71, 232.23 4.72, 227.31 7 M227.31 7 C227.32 3.3, 227.33 -0.4, 227.35 -5.68 M227.31 7 C227.33 2.04, 227.34 -2.91, 227.35 -5.68 M227.35 -5.68 C232.19 -3.41, 237.03 -1.13, 240.92 0.7 M227.35 -5.68 C231.98 -3.51, 236.61 -1.33, 240.92 0.7 M240.92 0.7 C240.92 0.7, 240.92 0.7, 240.92 0.7 M240.92 0.7 C240.92 0.7, 240.92 0.7, 240.92 0.7" stroke="#087f5b" stroke-width="2" fill="none"></path></g></g><g stroke-linecap="round"><g transform="translate(658.793975601407 326.2207609576303) rotate(0 0 50.000038146972656)"><path d="M0 0 C0 16.67, 0 83.33, 0 100 M0 0 C0 16.67, 0 83.33, 0 100" stroke="#087f5b" stroke-width="2" fill="none"></path></g></g><g stroke-linecap="round"><g transform="translate(658.4606855013094 325.66519904424604) rotate(0 -44.568545632576786 -0.10105894647529112)"><path d="M0 0 C-14.86 -0.03, -74.28 -0.17, -89.14 -0.2 M0 0 C-14.86 -0.03, -74.28 -0.17, -89.14 -0.2" stroke="#087f5b" stroke-width="2" fill="none"></path></g><g transform="translate(658.4606855013094 325.66519904424604) rotate(0 -44.568545632576786 -0.10105894647529112)"><path d="M-89.14 -0.2 L-75.53 -6.51 L-75.56 6.17 L-89.14 -0.2" stroke="none" stroke-width="0" fill="#087f5b" fill-rule="evenodd"></path><path d="M-89.14 -0.2 C-83.79 -2.68, -78.44 -5.16, -75.53 -6.51 M-89.14 -0.2 C-84.38 -2.41, -79.63 -4.61, -75.53 -6.51 M-75.53 -6.51 C-75.54 -3.04, -75.54 0.42, -75.56 6.17 M-75.53 -6.51 C-75.54 -2.94, -75.54 0.63, -75.56 6.17 M-75.56 6.17 C-79.79 4.18, -84.02 2.2, -89.14 -0.2 M-75.56 6.17 C-79.02 4.54, -82.49 2.91, -89.14 -0.2 M-89.14 -0.2 C-89.14 -0.2, -89.14 -0.2, -89.14 -0.2 M-89.14 -0.2 C-89.14 -0.2, -89.14 -0.2, -89.14 -0.2" stroke="#087f5b" stroke-width="2" fill="none"></path></g></g><g transform="translate(680.1940534212313 82.7207533282359) rotate(0 19 11.5)"><text x="0" y="19" font-family="Helvetica, Segoe UI Emoji" font-size="20px" fill="#c92a2a" text-anchor="start" style="white-space: pre;" direction="ltr">logs</text></g><g transform="translate(678.3940198518953 438.9207159442026) rotate(0 21.5 11.5)"><text x="0" y="19" font-family="Helvetica, Segoe UI Emoji" font-size="20px" fill="#c92a2a" text-anchor="start" style="white-space: pre;" direction="ltr">stats</text></g><g stroke-linecap="round"><g transform="translate(151.53166538352133 294.58303297255975) rotate(0.5476983614536262 39.110783429617356 -0.30562682769647154)"><path d="M0 0 C13.04 -0.1, 65.18 -0.51, 78.22 -0.61 M0 0 C13.04 -0.1, 65.18 -0.51, 78.22 -0.61" stroke="#087f5b" stroke-width="2" fill="none"></path></g><g transform="translate(151.53166538352133 294.58303297255975) rotate(0.5476983614536262 39.110783429617356 -0.30562682769647154)"><path d="M78.22 -0.61 L64.68 5.83 L64.58 -6.84 L78.22 -0.61" stroke="none" stroke-width="0" fill="#087f5b" fill-rule="evenodd"></path><path d="M78.22 -0.61 C72.85 1.95, 67.47 4.5, 64.68 5.83 M78.22 -0.61 C74.94 0.95, 71.66 2.51, 64.68 5.83 M64.68 5.83 C64.65 2.77, 64.63 -0.29, 64.58 -6.84 M64.68 5.83 C64.64 1.61, 64.61 -2.61, 64.58 -6.84 M64.58 -6.84 C69.34 -4.67, 74.1 -2.49, 78.22 -0.61 M64.58 -6.84 C68.33 -5.13, 72.08 -3.42, 78.22 -0.61 M78.22 -0.61 C78.22 -0.61, 78.22 -0.61, 78.22 -0.61 M78.22 -0.61 C78.22 -0.61, 78.22 -0.61, 78.22 -0.61" stroke="#087f5b" stroke-width="2" fill="none"></path></g></g><g stroke-linecap="round"><g transform="translate(658.5374711187139 253.2294135002071) rotate(0 -43.73333740234381 0)"><path d="M0 0 C-14.58 0, -72.89 0, -87.47 0 M0 0 C-14.58 0, -72.89 0, -87.47 0" stroke="#087f5b" stroke-width="2" fill="none"></path></g><g transform="translate(658.5374711187139 253.2294135002071) rotate(0 -43.73333740234381 0)"><path d="M-87.47 -15 C-87.47 -9.49, -87.47 -3.98, -87.47 0 M-87.47 -15 C-87.47 -9.87, -87.47 -4.73, -87.47 0" stroke="#087f5b" stroke-width="2" fill="none"></path></g><g transform="translate(658.5374711187139 253.2294135002071) rotate(0 -43.73333740234381 0)"><path d="M-87.47 15 C-87.47 9.49, -87.47 3.98, -87.47 0 M-87.47 15 C-87.47 9.87, -87.47 4.73, -87.47 0" stroke="#087f5b" stroke-width="2" fill="none"></path></g></g><g stroke-linecap="round" transform="translate(27.777539567874214 197.66561927522605) rotate(0 35.3515625 32.53773834745763)"><path d="M39.76 0.72 C46.41 0.86, 53.07 4.37, 58.23 8.61 C63.39 12.86, 69.07 20.04, 70.7 26.19 C72.33 32.33, 70.93 39.66, 68.01 45.48 C65.09 51.3, 59.24 57.91, 53.18 61.1 C47.12 64.29, 38.58 65.42, 31.66 64.62 C24.74 63.82, 16.68 60.54, 11.67 56.3 C6.66 52.06, 2.94 45.32, 1.6 39.18 C0.25 33.04, 1.12 25.08, 3.6 19.45 C6.07 13.82, 10.02 8.55, 16.44 5.39 C22.87 2.23, 37.08 1.04, 42.16 0.5 C47.23 -0.04, 46.88 1.56, 46.89 2.15 M23.38 2.4 C29.2 0.31, 38.29 0.2, 45.2 1.81 C52.11 3.42, 60.46 6.82, 64.83 12.07 C69.21 17.33, 71.37 26.68, 71.44 33.34 C71.51 40, 69.52 47.19, 65.23 52.01 C60.95 56.84, 52.44 60.34, 45.71 62.27 C38.99 64.2, 31.52 65.43, 24.9 63.59 C18.28 61.75, 10.06 56.51, 5.99 51.24 C1.92 45.98, 0.34 38.19, 0.46 32.02 C0.57 25.85, 2.88 19.12, 6.69 14.23 C10.49 9.34, 20.29 4.52, 23.29 2.68 C26.28 0.83, 24.1 2.94, 24.67 3.15" stroke="#000000" stroke-width="2" fill="none"></path></g><g stroke-linecap="round"><g transform="translate(59.265887025501456 263.51428145401314) rotate(0 -1.7346398305084847 39.44650423728814)"><path d="M0 0 C-0.58 13.15, -2.89 65.74, -3.47 78.89 M0 0 C-0.58 13.15, -2.89 65.74, -3.47 78.89" stroke="#000000" stroke-width="2" fill="none"></path></g></g><g stroke-linecap="round"><g transform="translate(55.96874719499249 343.4266225557067) rotate(0 15.615068855932208 24.056541313559308)"><path d="M0 0 C5.21 8.02, 26.03 40.09, 31.23 48.11 M0 0 C5.21 8.02, 26.03 40.09, 31.23 48.11" stroke="#000000" stroke-width="2" fill="none"></path></g></g><g stroke-linecap="round"><g transform="translate(55.929506991882135 343.4599459119179) rotate(0 -13.360699152542367 22.348384533898297)"><path d="M0 0 C-4.45 7.45, -22.27 37.25, -26.72 44.7 M0 0 C-4.45 7.45, -22.27 37.25, -26.72 44.7" stroke="#000000" stroke-width="2" fill="none"></path></g></g><g stroke-linecap="round"><g transform="translate(25.499777652339446 276.6081751912302) rotate(0 15.229278520028956 15.172230040503791)"><path d="M0.59 1.17 C5.72 6.09, 25.97 23.6, 31.01 28.43 M-0.56 0.74 C4.46 5.9, 25.27 25.01, 30.42 29.6" stroke="#000000" stroke-width="2" fill="none"></path></g></g><g stroke-linecap="round"><g transform="translate(56.600125771123885 305.6808077743028) rotate(0 22.852118180909883 -12.664245397198727)"><path d="M1.17 0.68 C8.52 -3.45, 35.77 -20.06, 43.02 -24.15 M0.33 -0.01 C8.17 -4.55, 38.02 -21.71, 45.37 -26.01" stroke="#000000" stroke-width="2" fill="none"></path></g></g><g stroke-linecap="round"><g transform="translate(15.987881199230856 203.37107435655423) rotate(0 50.79195435978477 10.333588668331515)"><path d="M0 0 C16.93 3.44, 84.65 17.22, 101.58 20.67 M0 0 C16.93 3.44, 84.65 17.22, 101.58 20.67" stroke="#000000" stroke-width="2" fill="none"></path></g></g><g stroke-linecap="round" transform="translate(48.77430063133727 137.81363472242072) rotate(10.74366233694554 26.183669330212794 36.80112358758396)"><path d="M0 0 L52.37 0 L52.37 73.6 L0 73.6" stroke="none" stroke-width="0" fill="#fa5252"></path><path d="M0 0 C20.83 0, 41.67 0, 52.37 0 M0 0 C14.13 0, 28.27 0, 52.37 0 M52.37 0 C52.37 28.14, 52.37 56.28, 52.37 73.6 M52.37 0 C52.37 25.96, 52.37 51.92, 52.37 73.6 M52.37 73.6 C37.71 73.6, 23.06 73.6, 0 73.6 M52.37 73.6 C36.41 73.6, 20.44 73.6, 0 73.6 M0 73.6 C0 55.75, 0 37.9, 0 0 M0 73.6 C0 55.45, 0 37.31, 0 0" stroke="#000000" stroke-width="2" fill="none"></path></g><g stroke-linecap="round"><g transform="translate(62.9678718473192 243.277282093371) rotate(0 1.9114473716141873 7.4830229232675265)" fill-rule="evenodd"><path d="M0.78 -1.16 L27.82 11.44 L34.36 8.98 L44.9 1.28 L41.4 14.32 L40.01 16.59 L32.4 16.2 L0.56 10.66 L-21.54 13.91 L-25.79 13.5 L-36.64 6.46 L-43.04 -1.38 L-31.78 5.62 L-24.97 5.11 L0.1 -0.69" stroke="none" stroke-width="0" fill="#000" fill-rule="evenodd"></path><path d="M0.51 0.99 C4.81 2.77, 20.59 8.71, 26.49 9.98 C32.39 11.26, 32.91 9.83, 35.91 8.65 C38.9 7.47, 44.14 1.68, 44.46 2.91 C44.78 4.13, 41.13 13.49, 37.82 16 C34.5 18.5, 30.97 18.74, 24.55 17.95 C18.13 17.16, 7.81 12.1, -0.7 11.24 C-9.21 10.38, -19.91 15.24, -26.5 12.8 C-33.09 10.36, -40.22 -2.44, -40.23 -3.39 C-40.25 -4.34, -33.3 6.47, -26.61 7.1 C-19.92 7.73, -4.54 1.7, -0.08 0.4 M-0.69 0.47 C3.47 1.93, 19.99 6.44, 25.95 8.02 C31.92 9.59, 31.92 10.61, 35.1 9.92 C38.28 9.22, 44.24 2.79, 45.02 3.85 C45.81 4.9, 43.05 13.98, 39.81 16.24 C36.58 18.5, 32.27 18.39, 25.59 17.4 C18.91 16.41, 8.57 10.62, -0.29 10.31 C-9.15 9.99, -20.74 17.44, -27.58 15.49 C-34.42 13.54, -41.6 0.01, -41.33 -1.37 C-41.06 -2.76, -32.88 6.67, -25.96 7.16 C-19.04 7.66, -3.93 3.04, 0.2 1.59" stroke="#000000" stroke-width="1" fill="none"></path></g></g><g stroke-linecap="round" transform="translate(35.447705697071456 217.70582074826405) rotate(0 11.5814208984375 9.222412109375)"><path d="M23.16 9.22 C23.16 9.76, 23.1 10.3, 22.99 10.82 C22.87 11.35, 22.69 11.88, 22.46 12.38 C22.24 12.88, 21.95 13.37, 21.61 13.83 C21.28 14.3, 20.88 14.74, 20.45 15.15 C20.02 15.56, 19.54 15.94, 19.03 16.29 C18.51 16.63, 17.95 16.94, 17.37 17.21 C16.79 17.48, 16.17 17.71, 15.54 17.89 C14.91 18.07, 14.25 18.21, 13.59 18.3 C12.93 18.4, 12.25 18.44, 11.58 18.44 C10.91 18.44, 10.23 18.4, 9.57 18.3 C8.91 18.21, 8.25 18.07, 7.62 17.89 C6.99 17.71, 6.37 17.48, 5.79 17.21 C5.21 16.94, 4.65 16.63, 4.14 16.29 C3.62 15.94, 3.14 15.56, 2.71 15.15 C2.28 14.74, 1.89 14.3, 1.55 13.83 C1.22 13.37, 0.93 12.88, 0.7 12.38 C0.47 11.88, 0.29 11.35, 0.18 10.82 C0.06 10.3, 0 9.76, 0 9.22 C0 8.69, 0.06 8.15, 0.18 7.62 C0.29 7.1, 0.47 6.57, 0.7 6.07 C0.93 5.57, 1.22 5.07, 1.55 4.61 C1.89 4.15, 2.28 3.7, 2.71 3.29 C3.14 2.89, 3.62 2.5, 4.14 2.16 C4.65 1.81, 5.21 1.5, 5.79 1.24 C6.37 0.97, 6.99 0.74, 7.62 0.56 C8.25 0.37, 8.91 0.23, 9.57 0.14 C10.23 0.05, 10.91 0, 11.58 0 C12.25 0, 12.93 0.05, 13.59 0.14 C14.25 0.23, 14.91 0.37, 15.54 0.56 C16.17 0.74, 16.79 0.97, 17.37 1.24 C17.95 1.5, 18.51 1.81, 19.03 2.16 C19.54 2.5, 20.02 2.89, 20.45 3.29 C20.88 3.7, 21.28 4.15, 21.61 4.61 C21.95 5.07, 22.24 5.57, 22.46 6.07 C22.69 6.57, 22.87 7.1, 22.99 7.62 C23.1 8.15, 23.13 8.96, 23.16 9.22 C23.19 9.49, 23.19 8.96, 23.16 9.22" stroke="#000000" stroke-width="1" fill="none"></path></g><g stroke-linecap="round" transform="translate(45.958447884571456 224.98047895138814) rotate(0 0.604248046875 0.79345703125)"><path d="M1.21 0.79 C1.21 0.84, 1.21 0.89, 1.2 0.93 C1.19 0.98, 1.18 1.02, 1.17 1.06 C1.16 1.11, 1.15 1.15, 1.13 1.19 C1.11 1.23, 1.09 1.27, 1.07 1.3 C1.04 1.34, 1.02 1.37, 0.99 1.4 C0.97 1.43, 0.94 1.46, 0.91 1.48 C0.88 1.5, 0.84 1.52, 0.81 1.54 C0.78 1.55, 0.74 1.57, 0.71 1.57 C0.67 1.58, 0.64 1.59, 0.6 1.59 C0.57 1.59, 0.53 1.58, 0.5 1.57 C0.46 1.57, 0.43 1.55, 0.4 1.54 C0.36 1.52, 0.33 1.5, 0.3 1.48 C0.27 1.46, 0.24 1.43, 0.22 1.4 C0.19 1.37, 0.16 1.34, 0.14 1.3 C0.12 1.27, 0.1 1.23, 0.08 1.19 C0.06 1.15, 0.05 1.11, 0.04 1.06 C0.02 1.02, 0.02 0.98, 0.01 0.93 C0 0.89, 0 0.84, 0 0.79 C0 0.75, 0 0.7, 0.01 0.66 C0.02 0.61, 0.02 0.57, 0.04 0.52 C0.05 0.48, 0.06 0.44, 0.08 0.4 C0.1 0.36, 0.12 0.32, 0.14 0.28 C0.16 0.25, 0.19 0.22, 0.22 0.19 C0.24 0.16, 0.27 0.13, 0.3 0.11 C0.33 0.08, 0.36 0.06, 0.4 0.05 C0.43 0.03, 0.46 0.02, 0.5 0.01 C0.53 0, 0.57 0, 0.6 0 C0.64 0, 0.67 0, 0.71 0.01 C0.74 0.02, 0.78 0.03, 0.81 0.05 C0.84 0.06, 0.88 0.08, 0.91 0.11 C0.94 0.13, 0.97 0.16, 0.99 0.19 C1.02 0.22, 1.04 0.25, 1.07 0.28 C1.09 0.32, 1.11 0.36, 1.13 0.4 C1.15 0.44, 1.16 0.48, 1.17 0.52 C1.18 0.57, 1.19 0.61, 1.2 0.66 C1.21 0.7, 1.21 0.77, 1.21 0.79 C1.21 0.82, 1.21 0.77, 1.21 0.79" stroke="#000000" stroke-width="2" fill="none"></path></g><g stroke-linecap="round" transform="translate(77.75166077519651 227.72095746701314) rotate(0 0.6103515625 1.03759765625)"><path d="M1.22 1.04 C1.22 1.1, 1.22 1.16, 1.21 1.22 C1.21 1.28, 1.2 1.34, 1.18 1.39 C1.17 1.45, 1.16 1.5, 1.14 1.56 C1.12 1.61, 1.1 1.66, 1.08 1.7 C1.06 1.75, 1.03 1.79, 1 1.83 C0.98 1.87, 0.95 1.91, 0.92 1.94 C0.88 1.97, 0.85 1.99, 0.82 2.01 C0.79 2.03, 0.75 2.05, 0.72 2.06 C0.68 2.07, 0.65 2.08, 0.61 2.08 C0.58 2.08, 0.54 2.07, 0.5 2.06 C0.47 2.05, 0.43 2.03, 0.4 2.01 C0.37 1.99, 0.34 1.97, 0.31 1.94 C0.27 1.91, 0.25 1.87, 0.22 1.83 C0.19 1.79, 0.17 1.75, 0.14 1.7 C0.12 1.66, 0.1 1.61, 0.08 1.56 C0.06 1.5, 0.05 1.45, 0.04 1.39 C0.02 1.34, 0.02 1.28, 0.01 1.22 C0 1.16, 0 1.1, 0 1.04 C0 0.98, 0 0.92, 0.01 0.86 C0.02 0.8, 0.02 0.74, 0.04 0.68 C0.05 0.63, 0.06 0.57, 0.08 0.52 C0.1 0.47, 0.12 0.42, 0.14 0.37 C0.17 0.32, 0.19 0.28, 0.22 0.24 C0.25 0.2, 0.27 0.17, 0.31 0.14 C0.34 0.11, 0.37 0.08, 0.4 0.06 C0.43 0.04, 0.47 0.03, 0.5 0.02 C0.54 0.01, 0.58 0, 0.61 0 C0.65 0, 0.68 0.01, 0.72 0.02 C0.75 0.03, 0.79 0.04, 0.82 0.06 C0.85 0.08, 0.88 0.11, 0.92 0.14 C0.95 0.17, 0.98 0.2, 1 0.24 C1.03 0.28, 1.06 0.32, 1.08 0.37 C1.1 0.42, 1.12 0.47, 1.14 0.52 C1.16 0.57, 1.17 0.63, 1.18 0.68 C1.2 0.74, 1.21 0.8, 1.21 0.86 C1.22 0.92, 1.22 1.01, 1.22 1.04 C1.22 1.07, 1.22 1.01, 1.22 1.04" stroke="#000000" stroke-width="2" fill="none"></path></g><g stroke-linecap="round"><g transform="translate(171.06561116959472 294.09388939201494) rotate(0 -24.204914817590975 0.262571868510463)"><path d="M0 0 C-8.07 0.09, -40.34 0.44, -48.41 0.53 M0 0 C-8.07 0.09, -40.34 0.44, -48.41 0.53" stroke="#087f5b" stroke-width="2" fill="none"></path></g><g transform="translate(171.06561116959472 294.09388939201494) rotate(0 -24.204914817590975 0.262571868510463)"><path d="M-48.41 0.53 L-34.88 -5.96 L-34.75 6.72 L-48.41 0.53" stroke="none" stroke-width="0" fill="#087f5b" fill-rule="evenodd"></path><path d="M-48.41 0.53 C-43.47 -1.85, -38.52 -4.22, -34.88 -5.96 M-48.41 0.53 C-43.47 -1.84, -38.53 -4.21, -34.88 -5.96 M-34.88 -5.96 C-34.84 -1.66, -34.79 2.63, -34.75 6.72 M-34.88 -5.96 C-34.84 -1.96, -34.8 2.04, -34.75 6.72 M-34.75 6.72 C-37.67 5.39, -40.6 4.07, -48.41 0.53 M-34.75 6.72 C-39.06 4.76, -43.37 2.81, -48.41 0.53 M-48.41 0.53 C-48.41 0.53, -48.41 0.53, -48.41 0.53 M-48.41 0.53 C-48.41 0.53, -48.41 0.53, -48.41 0.53" stroke="#087f5b" stroke-width="2" fill="none"></path></g></g></svg>